<svg width="94" height="43" viewBox="0 0 94 43" fill="none" xmlns="http://www.w3.org/2000/svg">
<path fill-rule="evenodd" clip-rule="evenodd" d="M0.0109659 30.0645V11.6967L6.17378 8.13281V15.6115V23.1999C6.17378 24.2636 6.3273 25.2834 6.62338 26.2484L0 30.0645H0.0109659Z" fill="#2B2562"/>
<path fill-rule="evenodd" clip-rule="evenodd" d="M32.6559 31.5012L25.1114 35.8546L16.7445 40.6906L8.37752 35.8546L0.833008 31.5012L7.23707 27.8057C8.95871 31.3257 12.5774 33.7711 16.7445 33.7711C20.9115 33.7711 24.5302 31.3257 26.2519 27.8057L32.6559 31.5012Z" fill="#2B2562"/>
<path fill-rule="evenodd" clip-rule="evenodd" d="M27.3158 8.14355L33.4786 11.7075V30.0753L26.8662 26.2592C27.1623 25.2942 27.3158 24.2743 27.3158 23.2106V15.6223V8.14355Z" fill="#2B2562"/>
<path fill-rule="evenodd" clip-rule="evenodd" d="M16.7449 2.03516L25.1119 6.8711L27.316 8.14314H19.2122V25.2718C19.2122 26.6316 18.1047 27.7501 16.7449 27.7611C15.3852 27.7501 14.2776 26.6316 14.2776 25.2718V8.14314H6.17383L8.37797 6.8711L16.7449 2.03516Z" fill="#2B2562"/>
<path d="M46.5769 31.2251L46.009 30.675C45.7892 30.8671 45.5694 31.0243 45.3496 31.1378C45.1297 31.2513 44.8641 31.3037 44.5527 31.3037C44.3146 31.3037 44.0856 31.26 43.8841 31.1727C43.6826 31.0854 43.4994 30.9631 43.3529 30.8059C43.2063 30.6488 43.0873 30.4654 43.0048 30.2558C42.9224 30.0462 42.8858 29.8192 42.8858 29.5834C42.8858 29.3476 42.9224 29.1206 43.0048 28.911C43.0873 28.7014 43.2063 28.5267 43.3529 28.3696C43.4994 28.2124 43.6826 28.0901 43.8841 28.0028C44.0856 27.9155 44.3146 27.8718 44.5527 27.8718C44.8458 27.8718 45.1023 27.9242 45.3221 28.0377C45.5511 28.1513 45.7617 28.291 45.9632 28.4744L46.5311 27.8456C46.412 27.7408 46.2838 27.636 46.1464 27.54C46.009 27.4439 45.8625 27.3653 45.7068 27.3042C45.5511 27.2343 45.377 27.1819 45.1847 27.147C44.9924 27.1121 44.7817 27.0946 44.5527 27.0946C44.168 27.0946 43.8108 27.1645 43.4994 27.2955C43.1789 27.4265 42.9041 27.6098 42.6751 27.8369C42.4461 28.0639 42.263 28.3259 42.1347 28.6315C42.0065 28.9372 41.9424 29.2603 41.9424 29.6009C41.9424 29.9414 42.0065 30.2733 42.1347 30.5789C42.263 30.8845 42.4461 31.1465 42.6751 31.3648C42.9041 31.5919 43.1789 31.7665 43.4903 31.8975C43.8017 32.0285 44.1497 32.0896 44.5161 32.0896C44.7542 32.0896 44.9649 32.0722 45.1664 32.0285C45.3587 31.9936 45.5419 31.9325 45.7068 31.8539C45.8716 31.7753 46.0273 31.6879 46.1647 31.5831C46.3021 31.4784 46.4395 31.3648 46.5769 31.2251ZM55.1681 29.5747C55.1681 29.2341 55.104 28.911 54.9757 28.6053C54.8475 28.2997 54.6643 28.0377 54.4353 27.8107C54.2064 27.5836 53.9224 27.409 53.6019 27.278C53.2813 27.147 52.9241 27.0771 52.5303 27.0771C52.1364 27.0771 51.7792 27.147 51.4587 27.278C51.1381 27.409 50.8542 27.5924 50.616 27.8194C50.3779 28.0465 50.1947 28.3084 50.0665 28.6141C49.9382 28.9197 49.8741 29.2428 49.8741 29.5834C49.8741 29.924 49.9382 30.2471 50.0665 30.5527C50.1947 30.8583 50.3779 31.1203 50.6069 31.3474C50.8358 31.5744 51.1198 31.7491 51.4403 31.8801C51.7609 32.011 52.1181 32.0722 52.5119 32.0722C52.9058 32.0722 53.263 32.0023 53.5836 31.8713C53.9041 31.7403 54.1881 31.557 54.4262 31.3299C54.6643 31.1029 54.8475 30.8409 54.9757 30.5352C55.104 30.2296 55.1681 29.9152 55.1681 29.5659V29.5747ZM54.2339 29.5921C54.2339 29.8279 54.1881 30.0462 54.1056 30.2558C54.0232 30.4654 53.9041 30.6488 53.7576 30.7972C53.611 30.9544 53.4279 31.0767 53.2172 31.164C53.0065 31.2513 52.7776 31.295 52.5303 31.295C52.283 31.295 52.0448 31.2513 51.8342 31.1553C51.6235 31.0592 51.4403 30.9369 51.2846 30.7798C51.1289 30.6226 51.019 30.4392 50.9274 30.2296C50.845 30.02 50.7992 29.8017 50.7992 29.5659C50.7992 29.3301 50.845 29.1118 50.9274 28.9023C51.0099 28.6927 51.1289 28.5093 51.2755 28.3608C51.422 28.2036 51.6052 28.0814 51.8159 27.9941C52.0265 27.9067 52.2555 27.8631 52.5028 27.8631C52.7501 27.8631 52.9882 27.9067 53.1989 28.0028C53.4095 28.0989 53.5927 28.2211 53.7484 28.3783C53.9041 28.5355 54.014 28.7189 54.1056 28.9285C54.1881 29.138 54.2339 29.3563 54.2339 29.5921ZM62.5136 30.509L59.8026 27.1732H58.9782V32.0023H59.8575V28.5704L62.651 32.0023H63.3929V27.1732H62.5136V30.509ZM68.174 28.4307C68.174 28.2735 68.2472 28.1338 68.3938 28.0203C68.5403 27.9067 68.7418 27.8543 68.9983 27.8543C69.2272 27.8543 69.4562 27.898 69.6852 27.9853C69.9142 28.0727 70.1432 28.1949 70.3721 28.3521L70.8484 27.7146C70.5919 27.5138 70.308 27.3653 70.0149 27.2605C69.7218 27.1557 69.3829 27.1033 69.0166 27.1033C68.7693 27.1033 68.5311 27.1383 68.3205 27.2081C68.1098 27.278 67.9267 27.3741 67.7709 27.4963C67.6152 27.6186 67.4962 27.767 67.4137 27.9417C67.3313 28.1163 67.2855 28.3084 67.2855 28.518C67.2855 28.7451 67.3222 28.9372 67.3954 29.0944C67.4687 29.2516 67.5786 29.3825 67.716 29.4961C67.8625 29.6009 68.0366 29.6969 68.2472 29.7668C68.4579 29.8366 68.696 29.9065 68.9708 29.9676C69.2089 30.02 69.4013 30.0724 69.5478 30.1248C69.6944 30.1772 69.8134 30.2296 69.8959 30.2907C69.9783 30.3431 70.0424 30.413 70.0699 30.4828C70.0974 30.5527 70.1157 30.6313 70.1157 30.7186C70.1157 30.9107 70.0332 31.0592 69.8775 31.164C69.7127 31.2775 69.4929 31.3299 69.2272 31.3299C68.9067 31.3299 68.6227 31.2775 68.3755 31.164C68.1282 31.0592 67.8809 30.902 67.6336 30.7012L67.1023 31.3124C67.4046 31.5744 67.7343 31.7665 68.0915 31.8975C68.4487 32.0198 68.8242 32.0896 69.2089 32.0896C69.4745 32.0896 69.7218 32.0547 69.9416 31.9936C70.1615 31.9324 70.3538 31.8364 70.5095 31.7141C70.6652 31.5919 70.7934 31.4434 70.885 31.26C70.9766 31.0767 71.0224 30.8758 71.0224 30.6488C71.0224 30.4479 70.9858 30.2733 70.9217 30.1161C70.8484 29.9676 70.7476 29.8366 70.6103 29.7231C70.4729 29.6096 70.308 29.5135 70.0974 29.4349C69.8959 29.3563 69.6577 29.2865 69.3921 29.2254C69.154 29.173 68.9525 29.1206 68.7968 29.0682C68.6411 29.0158 68.5128 28.9634 68.4304 28.9023C68.3388 28.8411 68.2839 28.78 68.2472 28.7101C68.2106 28.6403 68.2014 28.5617 68.2014 28.4569L68.174 28.4307ZM79.0366 27.1645H78.1482V29.9414C78.1482 30.3868 78.0383 30.7186 77.8093 30.9457C77.5803 31.1727 77.2689 31.2862 76.8751 31.2862C76.4812 31.2862 76.1607 31.1727 75.9317 30.9369C75.7027 30.7012 75.5928 30.3606 75.5928 29.9065V27.1645H74.7044V29.9414C74.7044 30.2907 74.7593 30.5964 74.8601 30.8583C74.9608 31.1203 75.1074 31.3474 75.2905 31.522C75.4829 31.7054 75.7027 31.8364 75.9683 31.9237C76.2339 32.011 76.527 32.0547 76.8567 32.0547C77.1865 32.0547 77.4887 32.011 77.7543 31.9237C78.0199 31.8364 78.2489 31.6967 78.4413 31.5133C78.6336 31.3299 78.771 31.1029 78.8809 30.8321C78.9816 30.5614 79.0366 30.2471 79.0366 29.889V27.1557V27.1645ZM82.9933 31.9936H86.547V31.2251H83.8817V27.1732H82.9933V32.0023V31.9936ZM91.6212 27.9504H93.224V27.1645H89.1116V27.9504H90.7144V31.9936H91.612V27.9504H91.6212Z" fill="#2B2562"/>
<path d="M41.9219 11.1292H44.5968V18.3046C44.5968 19.4432 44.6299 20.1812 44.6962 20.5186C44.8107 21.0608 45.0818 21.4976 45.5095 21.829C45.9433 22.1543 46.5337 22.317 47.2808 22.317C48.0399 22.317 48.6122 22.1633 48.9978 21.8561C49.3834 21.5428 49.6153 21.1602 49.6936 20.7084C49.772 20.2565 49.8111 19.5065 49.8111 18.4582V11.1292H52.4861V18.0877C52.4861 19.6782 52.4138 20.8018 52.2692 21.4585C52.1246 22.1151 51.8565 22.6694 51.4649 23.1213C51.0793 23.5731 50.5612 23.9346 49.9105 24.2057C49.2599 24.4708 48.4104 24.6033 47.3621 24.6033C46.0969 24.6033 45.136 24.4587 44.4793 24.1695C43.8287 23.8743 43.3136 23.4948 42.934 23.0309C42.5545 22.561 42.3044 22.07 42.1839 21.5579C42.0092 20.7988 41.9219 19.6782 41.9219 18.1961V11.1292Z" fill="#2B2562"/>
<path d="M63.7913 19.5065L66.3849 20.3288C65.9872 21.7748 65.3245 22.8502 64.3967 23.555C63.475 24.2539 62.3032 24.6033 60.8814 24.6033C59.1222 24.6033 57.6763 24.0039 56.5436 22.805C55.411 21.6 54.8447 19.9553 54.8447 17.8708C54.8447 15.6658 55.414 13.9548 56.5527 12.7378C57.6913 11.5148 59.1884 10.9033 61.044 10.9033C62.6647 10.9033 63.981 11.3823 64.9932 12.3402C65.5956 12.9065 66.0475 13.7198 66.3487 14.7802L63.7009 15.4128C63.5443 14.7259 63.2159 14.1837 62.7159 13.7861C62.2218 13.3885 61.6194 13.1897 60.9085 13.1897C59.9265 13.1897 59.1282 13.5421 58.5137 14.247C57.9052 14.9519 57.601 16.0935 57.601 17.672C57.601 19.3468 57.9022 20.5397 58.5047 21.2506C59.1071 21.9615 59.8903 22.317 60.8543 22.317C61.5652 22.317 62.1767 22.091 62.6888 21.6392C63.2008 21.1874 63.5684 20.4764 63.7913 19.5065Z" fill="#2B2562"/>
<path d="M74.8525 19.5065V17.2744H80.618V22.5519C80.0578 23.0941 79.2444 23.5731 78.1781 23.9888C77.1177 24.3985 76.0423 24.6033 74.9519 24.6033C73.5662 24.6033 72.3583 24.3141 71.3281 23.7358C70.2979 23.1514 69.5237 22.32 69.0056 21.2416C68.4875 20.1571 68.2284 18.9793 68.2284 17.7081C68.2284 16.3285 68.5176 15.1025 69.0959 14.0301C69.6743 12.9577 70.5208 12.1354 71.6353 11.563C72.4848 11.1232 73.5421 10.9033 74.8073 10.9033C76.452 10.9033 77.7353 11.2497 78.657 11.9426C79.5848 12.6294 80.1813 13.5813 80.4463 14.7982L77.7895 15.2953C77.6027 14.6446 77.2503 14.1325 76.7322 13.759C76.2201 13.3794 75.5784 13.1897 74.8073 13.1897C73.6385 13.1897 72.7077 13.5602 72.0149 14.3012C71.3281 15.0422 70.9847 16.1417 70.9847 17.5997C70.9847 19.1721 71.3341 20.3529 72.0329 21.1422C72.7318 21.9254 73.6475 22.317 74.7802 22.317C75.3405 22.317 75.9008 22.2085 76.461 21.9916C77.0274 21.7687 77.5123 21.5006 77.916 21.1874V19.5065H74.8525Z" fill="#2B2562"/>
<path d="M83.0942 24.3774V11.1292H87.3867C89.0134 11.1292 90.0737 11.1955 90.5677 11.3281C91.3268 11.5269 91.9624 11.9606 92.4745 12.6294C92.9866 13.2921 93.2426 14.1506 93.2426 15.2049C93.2426 16.0182 93.095 16.702 92.7998 17.2563C92.5046 17.8106 92.1281 18.2473 91.6702 18.5666C91.2184 18.8799 90.7575 19.0878 90.2876 19.1902C89.649 19.3167 88.7242 19.38 87.5132 19.38H85.7691V24.3774H83.0942ZM85.7691 13.3704V17.1298H87.2331C88.2874 17.1298 88.9923 17.0605 89.3477 16.9219C89.7032 16.7834 89.9803 16.5665 90.1791 16.2713C90.384 15.9761 90.4864 15.6327 90.4864 15.2411C90.4864 14.7591 90.3448 14.3615 90.0616 14.0482C89.7785 13.7349 89.42 13.5391 88.9862 13.4608C88.6669 13.4005 88.0253 13.3704 87.0614 13.3704H85.7691Z" fill="#2B2562"/>
</svg>
