<svg width="94" height="55" viewBox="0 0 94 55" fill="none" xmlns="http://www.w3.org/2000/svg">
<path fill-rule="evenodd" clip-rule="evenodd" d="M0.0109659 36.5289V18.1611L6.17378 14.5972V22.0759V29.6643C6.17378 30.728 6.3273 31.7478 6.62338 32.7128L0 36.5289H0.0109659Z" fill="white"/>
<path fill-rule="evenodd" clip-rule="evenodd" d="M32.6559 37.9655L25.1114 42.319L16.7445 47.1549L8.37752 42.319L0.833008 37.9655L7.23707 34.27C8.95871 37.7901 12.5774 40.2355 16.7445 40.2355C20.9115 40.2355 24.5302 37.7901 26.2519 34.27L32.6559 37.9655Z" fill="white"/>
<path fill-rule="evenodd" clip-rule="evenodd" d="M27.3158 14.6084L33.4786 18.1723V36.5401L26.8662 32.724C27.1623 31.759 27.3158 30.7392 27.3158 29.6755V22.0871V14.6084Z" fill="white"/>
<path fill-rule="evenodd" clip-rule="evenodd" d="M16.7449 8.50049L25.1119 13.3364L27.316 14.6085H19.2122V31.7372C19.2122 33.0969 18.1047 34.2154 16.7449 34.2264C15.3852 34.2154 14.2776 33.0969 14.2776 31.7372V14.6085H6.17383L8.37797 13.3364L16.7449 8.50049Z" fill="white"/>
<path d="M46.5769 37.6895L46.009 37.1393C45.7892 37.3314 45.5694 37.4886 45.3496 37.6021C45.1297 37.7157 44.8641 37.7681 44.5527 37.7681C44.3146 37.7681 44.0856 37.7244 43.8841 37.6371C43.6826 37.5498 43.4994 37.4275 43.3529 37.2703C43.2063 37.1131 43.0873 36.9297 43.0048 36.7202C42.9224 36.5106 42.8858 36.2835 42.8858 36.0478C42.8858 35.812 42.9224 35.5849 43.0048 35.3753C43.0873 35.1658 43.2063 34.9911 43.3529 34.8339C43.4994 34.6767 43.6826 34.5545 43.8841 34.4672C44.0856 34.3798 44.3146 34.3362 44.5527 34.3362C44.8458 34.3362 45.1023 34.3886 45.3221 34.5021C45.5511 34.6156 45.7617 34.7553 45.9632 34.9387L46.5311 34.31C46.412 34.2052 46.2838 34.1004 46.1464 34.0043C46.009 33.9083 45.8625 33.8297 45.7068 33.7686C45.5511 33.6987 45.377 33.6463 45.1847 33.6114C44.9924 33.5764 44.7817 33.559 44.5527 33.559C44.168 33.559 43.8108 33.6288 43.4994 33.7598C43.1789 33.8908 42.9041 34.0742 42.6751 34.3012C42.4461 34.5283 42.263 34.7903 42.1347 35.0959C42.0065 35.4015 41.9424 35.7246 41.9424 36.0652C41.9424 36.4058 42.0065 36.7376 42.1347 37.0433C42.263 37.3489 42.4461 37.6109 42.6751 37.8292C42.9041 38.0562 43.1789 38.2309 43.4903 38.3619C43.8017 38.4929 44.1497 38.554 44.5161 38.554C44.7542 38.554 44.9649 38.5365 45.1664 38.4929C45.3587 38.4579 45.5419 38.3968 45.7068 38.3182C45.8716 38.2396 46.0273 38.1523 46.1647 38.0475C46.3021 37.9427 46.4395 37.8292 46.5769 37.6895ZM55.1681 36.039C55.1681 35.6984 55.104 35.3753 54.9757 35.0697C54.8475 34.7641 54.6643 34.5021 54.4353 34.275C54.2064 34.048 53.9224 33.8733 53.6019 33.7423C53.2813 33.6114 52.9241 33.5415 52.5303 33.5415C52.1364 33.5415 51.7792 33.6114 51.4587 33.7423C51.1381 33.8733 50.8542 34.0567 50.616 34.2838C50.3779 34.5108 50.1947 34.7728 50.0665 35.0784C49.9382 35.3841 49.8741 35.7072 49.8741 36.0478C49.8741 36.3883 49.9382 36.7114 50.0665 37.0171C50.1947 37.3227 50.3779 37.5847 50.6069 37.8117C50.8358 38.0388 51.1198 38.2134 51.4403 38.3444C51.7609 38.4754 52.1181 38.5365 52.5119 38.5365C52.9058 38.5365 53.263 38.4667 53.5836 38.3357C53.9041 38.2047 54.1881 38.0213 54.4262 37.7943C54.6643 37.5672 54.8475 37.3052 54.9757 36.9996C55.104 36.694 55.1681 36.3796 55.1681 36.0303V36.039ZM54.2339 36.0565C54.2339 36.2923 54.1881 36.5106 54.1056 36.7202C54.0232 36.9297 53.9041 37.1131 53.7576 37.2616C53.611 37.4188 53.4279 37.541 53.2172 37.6283C53.0065 37.7157 52.7776 37.7593 52.5303 37.7593C52.283 37.7593 52.0448 37.7157 51.8342 37.6196C51.6235 37.5235 51.4403 37.4013 51.2846 37.2441C51.1289 37.0869 51.019 36.9035 50.9274 36.694C50.845 36.4844 50.7992 36.2661 50.7992 36.0303C50.7992 35.7945 50.845 35.5762 50.9274 35.3666C51.0099 35.157 51.1289 34.9736 51.2755 34.8252C51.422 34.668 51.6052 34.5457 51.8159 34.4584C52.0265 34.3711 52.2555 34.3274 52.5028 34.3274C52.7501 34.3274 52.9882 34.3711 53.1989 34.4672C53.4095 34.5632 53.5927 34.6855 53.7484 34.8427C53.9041 34.9998 54.014 35.1832 54.1056 35.3928C54.1881 35.6024 54.2339 35.8207 54.2339 36.0565ZM62.5136 36.9734L59.8026 33.6376H58.9782V38.4667H59.8575V35.0348L62.651 38.4667H63.3929V33.6376H62.5136V36.9734ZM68.174 34.895C68.174 34.7379 68.2472 34.5981 68.3938 34.4846C68.5403 34.3711 68.7418 34.3187 68.9983 34.3187C69.2272 34.3187 69.4562 34.3624 69.6852 34.4497C69.9142 34.537 70.1432 34.6593 70.3721 34.8165L70.8484 34.179C70.5919 33.9781 70.308 33.8297 70.0149 33.7249C69.7218 33.6201 69.3829 33.5677 69.0166 33.5677C68.7693 33.5677 68.5311 33.6026 68.3205 33.6725C68.1098 33.7424 67.9267 33.8384 67.7709 33.9607C67.6152 34.0829 67.4962 34.2314 67.4137 34.406C67.3313 34.5807 67.2855 34.7728 67.2855 34.9824C67.2855 35.2094 67.3222 35.4015 67.3954 35.5587C67.4687 35.7159 67.5786 35.8469 67.716 35.9604C67.8625 36.0652 68.0366 36.1613 68.2472 36.2311C68.4579 36.301 68.696 36.3709 68.9708 36.432C69.2089 36.4844 69.4013 36.5368 69.5478 36.5892C69.6944 36.6416 69.8134 36.694 69.8959 36.7551C69.9783 36.8075 70.0424 36.8773 70.0699 36.9472C70.0974 37.0171 70.1157 37.0957 70.1157 37.183C70.1157 37.3751 70.0332 37.5236 69.8775 37.6283C69.7127 37.7419 69.4929 37.7943 69.2272 37.7943C68.9067 37.7943 68.6227 37.7419 68.3755 37.6283C68.1282 37.5236 67.8809 37.3664 67.6336 37.1655L67.1023 37.7768C67.4046 38.0388 67.7343 38.2309 68.0915 38.3619C68.4487 38.4841 68.8242 38.554 69.2089 38.554C69.4745 38.554 69.7218 38.5191 69.9416 38.4579C70.1615 38.3968 70.3538 38.3007 70.5095 38.1785C70.6652 38.0562 70.7934 37.9078 70.885 37.7244C70.9766 37.541 71.0224 37.3402 71.0224 37.1131C71.0224 36.9123 70.9858 36.7376 70.9217 36.5804C70.8484 36.432 70.7476 36.301 70.6103 36.1875C70.4729 36.0739 70.308 35.9779 70.0974 35.8993C69.8959 35.8207 69.6577 35.7508 69.3921 35.6897C69.154 35.6373 68.9525 35.5849 68.7968 35.5325C68.6411 35.4801 68.5128 35.4277 68.4304 35.3666C68.3388 35.3055 68.2839 35.2444 68.2472 35.1745C68.2106 35.1046 68.2014 35.026 68.2014 34.9212L68.174 34.895ZM79.0366 33.6288H78.1482V36.4058C78.1482 36.8511 78.0383 37.183 77.8093 37.41C77.5803 37.6371 77.2689 37.7506 76.8751 37.7506C76.4812 37.7506 76.1607 37.6371 75.9317 37.4013C75.7027 37.1655 75.5928 36.8249 75.5928 36.3709V33.6288H74.7044V36.4058C74.7044 36.7551 74.7593 37.0607 74.8601 37.3227C74.9608 37.5847 75.1074 37.8117 75.2905 37.9864C75.4829 38.1698 75.7027 38.3007 75.9683 38.3881C76.2339 38.4754 76.527 38.5191 76.8567 38.5191C77.1865 38.5191 77.4887 38.4754 77.7543 38.3881C78.0199 38.3007 78.2489 38.161 78.4413 37.9776C78.6336 37.7943 78.771 37.5672 78.8809 37.2965C78.9816 37.0258 79.0366 36.7114 79.0366 36.3534V33.6201V33.6288ZM82.9933 38.4579H86.547V37.6895H83.8817V33.6376H82.9933V38.4667V38.4579ZM91.6212 34.4148H93.224V33.6288H89.1116V34.4148H90.7144V38.4579H91.612V34.4148H91.6212Z" fill="white"/>
<path d="M41.9219 17.5946H44.5968V24.7699C44.5968 25.9086 44.6299 26.6466 44.6962 26.984C44.8107 27.5262 45.0818 27.963 45.5095 28.2943C45.9433 28.6196 46.5337 28.7823 47.2808 28.7823C48.0399 28.7823 48.6122 28.6287 48.9978 28.3214C49.3834 28.0081 49.6153 27.6256 49.6936 27.1737C49.772 26.7219 49.8111 25.9718 49.8111 24.9235V17.5946H52.4861V24.553C52.4861 26.1435 52.4138 27.2671 52.2692 27.9238C52.1246 28.5805 51.8565 29.1347 51.4649 29.5866C51.0793 30.0384 50.5612 30.3999 49.9105 30.671C49.2599 30.9361 48.4104 31.0686 47.3621 31.0686C46.0969 31.0686 45.136 30.9241 44.4793 30.6349C43.8287 30.3397 43.3136 29.9601 42.934 29.4962C42.5545 29.0263 42.3044 28.5353 42.1839 28.0232C42.0092 27.2641 41.9219 26.1435 41.9219 24.6615V17.5946Z" fill="white"/>
<path d="M63.7913 25.9718L66.3849 26.7942C65.9872 28.2401 65.3245 29.3155 64.3967 30.0204C63.475 30.7192 62.3032 31.0686 60.8814 31.0686C59.1222 31.0686 57.6763 30.4692 56.5436 29.2703C55.411 28.0654 54.8447 26.4207 54.8447 24.3361C54.8447 22.1311 55.414 20.4201 56.5527 19.2032C57.6913 17.9802 59.1884 17.3687 61.044 17.3687C62.6647 17.3687 63.981 17.8476 64.9932 18.8055C65.5956 19.3718 66.0475 20.1852 66.3487 21.2455L63.7009 21.8781C63.5443 21.1913 63.2159 20.6491 62.7159 20.2514C62.2218 19.8538 61.6194 19.655 60.9085 19.655C59.9265 19.655 59.1282 20.0074 58.5137 20.7123C57.9052 21.4172 57.601 22.5589 57.601 24.1373C57.601 25.8122 57.9022 27.005 58.5047 27.7159C59.1071 28.4269 59.8903 28.7823 60.8543 28.7823C61.5652 28.7823 62.1767 28.5564 62.6888 28.1045C63.2008 27.6527 63.5684 26.9418 63.7913 25.9718Z" fill="white"/>
<path d="M74.8525 25.9718V23.7397H80.618V29.0173C80.0578 29.5595 79.2444 30.0384 78.1781 30.4541C77.1177 30.8638 76.0423 31.0686 74.9519 31.0686C73.5662 31.0686 72.3583 30.7795 71.3281 30.2011C70.2979 29.6167 69.5237 28.7853 69.0056 27.7069C68.4875 26.6225 68.2284 25.4447 68.2284 24.1735C68.2284 22.7938 68.5176 21.5678 69.0959 20.4954C69.6743 19.423 70.5208 18.6007 71.6353 18.0283C72.4848 17.5886 73.5421 17.3687 74.8073 17.3687C76.452 17.3687 77.7353 17.7151 78.657 18.4079C79.5848 19.0947 80.1813 20.0466 80.4463 21.2636L77.7895 21.7606C77.6027 21.1099 77.2503 20.5979 76.7322 20.2243C76.2201 19.8448 75.5784 19.655 74.8073 19.655C73.6385 19.655 72.7077 20.0255 72.0149 20.7665C71.3281 21.5076 70.9847 22.6071 70.9847 24.065C70.9847 25.6374 71.3341 26.8183 72.0329 27.6075C72.7318 28.3907 73.6475 28.7823 74.7802 28.7823C75.3405 28.7823 75.9008 28.6739 76.461 28.457C77.0274 28.2341 77.5123 27.966 77.916 27.6527V25.9718H74.8525Z" fill="white"/>
<path d="M83.0942 30.8427V17.5946H87.3867C89.0134 17.5946 90.0737 17.6608 90.5677 17.7934C91.3268 17.9922 91.9624 18.426 92.4745 19.0947C92.9866 19.7574 93.2426 20.6159 93.2426 21.6702C93.2426 22.4836 93.095 23.1674 92.7998 23.7216C92.5046 24.2759 92.1281 24.7127 91.6702 25.032C91.2184 25.3453 90.7575 25.5531 90.2876 25.6555C89.649 25.782 88.7242 25.8453 87.5132 25.8453H85.7691V30.8427H83.0942ZM85.7691 19.8357V23.5951H87.2331C88.2874 23.5951 88.9923 23.5258 89.3477 23.3873C89.7032 23.2487 89.9803 23.0318 90.1791 22.7366C90.384 22.4414 90.4864 22.098 90.4864 21.7064C90.4864 21.2244 90.3448 20.8268 90.0616 20.5135C89.7785 20.2002 89.42 20.0044 88.9862 19.9261C88.6669 19.8659 88.0253 19.8357 87.0614 19.8357H85.7691Z" fill="white"/>
</svg>
