<svg width="96" height="96" viewBox="0 0 96 96" fill="none" xmlns="http://www.w3.org/2000/svg">
<circle cx="48" cy="48" r="48" fill="white"/>
<path d="M57.459 39.5174C56.9648 37.2387 55.7053 35.1979 53.8903 33.7344C52.0752 32.2708 49.8138 31.4727 47.4821 31.4727C45.1505 31.4727 42.8892 32.2708 41.0741 33.7344C39.259 35.1979 37.9996 37.2387 37.5053 39.5174C35.4936 39.5387 33.5728 40.3583 32.1653 41.7958C30.7579 43.2334 29.9791 45.1712 30.0004 47.1829C30.0217 49.1947 30.8413 51.1155 32.2789 52.5229C33.7165 53.9304 35.6542 54.7091 37.666 54.6878H38.5584L37.2555 56.2763C36.8195 56.1215 36.3616 56.0371 35.8991 56.0264C35.1048 56.0264 34.3284 56.262 33.6681 56.7032C33.0077 57.1444 32.493 57.7716 32.189 58.5055C31.8851 59.2392 31.8056 60.0466 31.9605 60.8255C32.1155 61.6045 32.4979 62.32 33.0595 62.8817C33.6211 63.4434 34.3367 63.8256 35.1156 63.9807C35.8946 64.1357 36.702 64.0561 37.4358 63.7521C38.1696 63.4482 38.7967 62.9334 39.238 62.2731C39.6793 61.6127 39.9148 60.8364 39.9148 60.0421C39.9166 59.3161 39.7124 58.6043 39.3258 57.9897L41.9494 54.7949V54.6878H46.0722V58.5072C45.1791 58.823 44.4263 59.4442 43.9471 60.2615C43.4677 61.0785 43.2927 62.0387 43.4529 62.9724C43.6131 63.906 44.0982 64.753 44.8225 65.3636C45.5467 65.9741 46.4634 66.309 47.4108 66.309C48.3581 66.309 49.2749 65.9741 49.9992 65.3636C50.7234 64.753 51.2085 63.906 51.3686 62.9724C51.5289 62.0387 51.3538 61.0785 50.8744 60.2615C50.3952 59.4442 49.6424 58.823 48.7493 58.5072V54.6878H52.8364L53.0506 55.0091L55.692 58.2038C55.3073 58.8192 55.1033 59.5304 55.1031 60.2563C55.1031 61.0505 55.3387 61.8269 55.7799 62.4873C56.2211 63.1476 56.8482 63.6623 57.5821 63.9663C58.3158 64.2702 59.1233 64.3498 59.9023 64.1949C60.6812 64.0398 61.3967 63.6575 61.9583 63.0959C62.52 62.5342 62.9025 61.8187 63.0574 61.0396C63.2123 60.2608 63.1327 59.4533 62.8288 58.7196C62.5248 57.9857 62.0103 57.3586 61.3497 56.9174C60.6894 56.4762 59.913 56.2406 59.1188 56.2406C58.6542 56.2465 58.1945 56.3373 57.7624 56.5083L56.2632 54.7235H57.334C59.3458 54.7448 61.2835 53.9661 62.7212 52.5586C64.1588 51.1512 64.9783 49.2304 64.9996 47.2186C65.0208 45.2069 64.2421 43.2691 62.8347 41.8315C61.4272 40.3939 59.5064 39.5744 57.4947 39.5531L57.459 39.5174ZM35.8991 61.3807C35.6343 61.3807 35.3755 61.3022 35.1554 61.1551C34.9353 61.008 34.7637 60.7991 34.6624 60.5544C34.5611 60.3098 34.5346 60.0407 34.5862 59.781C34.6379 59.5213 34.7653 59.2829 34.9525 59.0957C35.1398 58.9085 35.3783 58.7808 35.6379 58.7293C35.8976 58.6777 36.1667 58.7041 36.4113 58.8055C36.6559 58.9068 36.865 59.0784 37.012 59.2984C37.1591 59.5187 37.2376 59.7775 37.2376 60.0421C37.233 60.3957 37.0905 60.7336 36.8405 60.9836C36.5904 61.2336 36.2526 61.3761 35.8991 61.3807ZM47.4821 63.6117C47.2175 63.6117 46.9587 63.5331 46.7384 63.3861C46.5184 63.239 46.3469 63.03 46.2455 62.7853C46.1441 62.5408 46.1177 62.2717 46.1693 62.012C46.221 61.7523 46.3485 61.5138 46.5357 61.3266C46.7229 61.1394 46.9613 61.0118 47.221 60.9602C47.4807 60.9086 47.7499 60.9351 47.9944 61.0364C48.2391 61.1378 48.4481 61.3093 48.5951 61.5294C48.7422 61.7496 48.8207 62.0084 48.8207 62.2731C48.8161 62.6266 48.6737 62.9645 48.4236 63.2145C48.1736 63.4646 47.8357 63.607 47.4821 63.6117ZM60.4038 60.2563C60.4038 60.521 60.3253 60.7798 60.1782 61C60.0312 61.2201 59.8222 61.3916 59.5775 61.493C59.333 61.5943 59.0638 61.6208 58.8041 61.5692C58.5445 61.5174 58.306 61.39 58.1188 61.2028C57.9316 61.0155 57.8041 60.7771 57.7524 60.5174C57.7008 60.2577 57.7272 59.9886 57.8286 59.7441C57.93 59.4994 58.1015 59.2904 58.3215 59.1433C58.5418 58.9963 58.8006 58.9177 59.0652 58.9177C59.2425 58.9154 59.4185 58.9483 59.583 59.0145C59.7474 59.0807 59.8971 59.1788 60.0233 59.3034C60.1495 59.428 60.2498 59.5763 60.3181 59.74C60.3865 59.9035 60.4217 60.0791 60.4217 60.2563H60.4038ZM57.2983 52.0107H37.666C36.3643 52.0107 35.1159 51.4937 34.1954 50.5731C33.275 49.6527 32.7579 48.4042 32.7579 47.1026C32.7579 45.8008 33.275 44.5525 34.1954 43.6321C35.1159 42.7116 36.3643 42.1945 37.666 42.1945C37.9243 42.1964 38.1816 42.2263 38.4334 42.2837C38.8 42.3301 39.1704 42.2343 39.4686 42.016C39.6109 41.8998 39.7284 41.7562 39.8143 41.5937C39.9001 41.4312 39.9525 41.2532 39.9683 41.0701C40.0996 39.1668 40.9483 37.3842 42.3429 36.0824C43.7376 34.7806 45.5744 34.0566 47.4821 34.0566C49.3901 34.0566 51.2268 34.7806 52.6214 36.0824C54.0162 37.3842 54.8648 39.1668 54.996 41.0701C55.0119 41.2532 55.0642 41.4312 55.15 41.5937C55.2359 41.7562 55.3535 41.8998 55.4957 42.016C55.794 42.2343 56.1643 42.3301 56.5309 42.2837C56.7827 42.2263 57.0401 42.1964 57.2983 42.1945C58.6001 42.1945 59.8484 42.7116 60.769 43.6321C61.6894 44.5525 62.2064 45.8008 62.2064 47.1026C62.2064 48.4042 61.6894 49.6527 60.769 50.5731C59.8484 51.4937 58.6001 52.0107 57.2983 52.0107Z" fill="#1D1E25"/>
</svg>
