<svg width="96" height="96" viewBox="0 0 96 96" fill="none" xmlns="http://www.w3.org/2000/svg">
<circle cx="48" cy="48" r="48" fill="white"/>
<path d="M64.5 51.5536V45.3917L60.735 44.4675C60.4982 43.7164 60.1908 42.9972 59.8311 42.3096L61.7974 39.0323L57.4403 34.6752L54.1631 36.6415C53.4755 36.2819 52.7563 35.9745 52.005 35.7377L51.0809 31.9727H44.9191L43.995 35.7377C43.2437 35.9745 42.5245 36.2819 41.8369 36.6415L38.5597 34.6752L34.2026 39.0323L36.1689 42.3096C35.8092 42.9972 35.5018 43.7164 35.265 44.4675L31.5 45.3917V51.5536L35.265 52.4778C35.5018 53.2289 35.8092 53.9481 36.1689 54.6357L34.2026 57.913L38.5597 62.2701L41.8369 60.3038C42.5245 60.6634 43.2437 60.9708 43.995 61.2076L44.9191 64.9727H51.0809L52.005 61.2076C52.7563 60.9708 53.4755 60.6634 54.1631 60.3038L57.4403 62.2701L61.7974 57.913L59.8311 54.6357C60.1908 53.9481 60.4982 53.2289 60.735 52.4778L64.5 51.5536Z" stroke="#1D1E25" stroke-width="2.26286" stroke-miterlimit="10" stroke-linecap="round" stroke-linejoin="round"/>
<path d="M51.0809 40.8563C54.089 42.0776 56.2157 45.0315 56.2157 48.4727C56.2157 53.0028 52.5301 56.6885 47.9999 56.6885C43.4698 56.6885 39.7842 53.0028 39.7842 48.4727C39.7842 45.0315 41.9109 42.0776 44.919 40.8563V48.4727L47.9999 50.5267L51.0809 48.4727V40.8563Z" stroke="#1D1E25" stroke-width="2.26286" stroke-miterlimit="10" stroke-linecap="round" stroke-linejoin="round"/>
<path d="M44.9189 64.9727V56.089" stroke="#1D1E25" stroke-width="2.26286" stroke-miterlimit="10" stroke-linecap="round" stroke-linejoin="round"/>
<path d="M51.0811 64.9727V56.089" stroke="#1D1E25" stroke-width="2.26286" stroke-miterlimit="10" stroke-linecap="round" stroke-linejoin="round"/>
</svg>
