<svg width="96" height="96" viewBox="0 0 96 96" fill="none" xmlns="http://www.w3.org/2000/svg">
<circle cx="48" cy="48" r="48" fill="white"/>
<path d="M37.7148 44.0358L48.4333 38.5791L59.2168 44.0358L48.4333 49.4925L37.7148 44.0358Z" stroke="#1D1E25" stroke-width="2.26" stroke-linejoin="round"/>
<path d="M42.1971 46.3091L37.7148 48.9075L48.3684 54.4292L59.3467 48.9075L54.8644 46.2441" stroke="#1D1E25" stroke-width="2.26" stroke-linejoin="round"/>
<path d="M42.1967 51.2466L37.6494 54.1049L48.303 59.6265L59.2813 54.1049L54.864 51.1816" stroke="#1D1E25" stroke-width="2.26" stroke-linejoin="round"/>
<path d="M64.9844 39.0337H66.1144C66.1144 38.6233 65.8919 38.2452 65.5332 38.0459L64.9844 39.0337ZM64.9844 58.7817L65.5629 59.7524C65.9049 59.5486 66.1144 59.1798 66.1144 58.7817H64.9844ZM58.8781 34.4215H57.7481C57.7481 34.8737 57.3815 35.2403 56.9293 35.2403V36.3703V37.5003C58.6297 37.5003 60.0081 36.1219 60.0081 34.4215H58.8781ZM56.9293 36.3703V35.2403C56.4771 35.2403 56.1105 34.8737 56.1105 34.4215H54.9805H53.8505C53.8505 36.1219 55.2289 37.5003 56.9293 37.5003V36.3703ZM54.9805 34.4215H56.1105C56.1105 33.9693 56.4771 33.6027 56.9293 33.6027V32.4727V31.3427C55.2289 31.3427 53.8505 32.7211 53.8505 34.4215H54.9805ZM56.9293 32.4727V33.6027C57.3815 33.6027 57.7481 33.9693 57.7481 34.4215H58.8781H60.0081C60.0081 32.7211 58.6297 31.3427 56.9293 31.3427V32.4727ZM58.8781 63.5238H57.7481C57.7481 63.9761 57.3815 64.3427 56.9293 64.3427V65.4727V66.6027C58.6297 66.6027 60.0081 65.2242 60.0081 63.5238H58.8781ZM56.9293 65.4727V64.3427C56.4771 64.3427 56.1105 63.9761 56.1105 63.5238H54.9805H53.8505C53.8505 65.2242 55.2289 66.6027 56.9293 66.6027V65.4727ZM54.9805 63.5238H56.1105C56.1105 63.0716 56.4771 62.705 56.9293 62.705V61.575V60.445C55.2289 60.445 53.8505 61.8235 53.8505 63.5238H54.9805ZM56.9293 61.575V62.705C57.3815 62.705 57.7481 63.0716 57.7481 63.5238H58.8781H60.0081C60.0081 61.8235 58.6297 60.445 56.9293 60.445V61.575ZM58.5533 35.4608L58.0045 36.4486L64.4356 40.0215L64.9844 39.0337L65.5332 38.0459L59.1021 34.473L58.5533 35.4608ZM64.9844 39.0337H63.8544V58.7817H64.9844H66.1144V39.0337H64.9844ZM64.9844 58.7817L64.4059 57.811L57.9748 61.6437L58.5533 62.6144L59.1318 63.5851L65.5629 59.7524L64.9844 58.7817Z" fill="#1D1E25"/>
<path d="M38.3129 35.4608L32.3962 38.7479C32.0787 38.9243 31.8818 39.2589 31.8818 39.6221V58.2136C31.8818 58.5659 32.0672 58.8922 32.3699 59.0726L38.3129 62.6144M37.9881 34.4215C37.9881 35.4978 38.8606 36.3703 39.9369 36.3703C41.0132 36.3703 41.8857 35.4978 41.8857 34.4215C41.8857 33.3452 41.0132 32.4727 39.9369 32.4727C38.8606 32.4727 37.9881 33.3452 37.9881 34.4215ZM37.9881 63.5238C37.9881 64.6001 38.8606 65.4727 39.9369 65.4727C41.0132 65.4727 41.8857 64.6001 41.8857 63.5238C41.8857 62.4475 41.0132 61.575 39.9369 61.575C38.8606 61.575 37.9881 62.4475 37.9881 63.5238Z" stroke="#1D1E25" stroke-width="2.26"/>
</svg>
