<svg width="96" height="96" viewBox="0 0 96 96" fill="none" xmlns="http://www.w3.org/2000/svg">
<circle cx="48" cy="48" r="48" fill="white"/>
<path d="M61.7291 45.0736C62.1762 44.8134 62.5653 44.4648 62.8728 44.0489C63.1803 43.633 63.3997 43.1587 63.5174 42.6551C63.6485 42.1697 63.6824 41.6632 63.6172 41.1647C63.552 40.6661 63.3888 40.1854 63.1373 39.7502C62.8855 39.3149 62.5503 38.9337 62.1508 38.6284C61.7514 38.3232 61.2955 38.0999 60.8094 37.9714C60.3235 37.8364 59.8154 37.8001 59.3154 37.8644C58.8151 37.9288 58.3328 38.0925 57.897 38.3461C57.6962 38.4628 57.5078 38.5998 57.3349 38.7548L51.7826 35.5529C51.8001 35.3204 51.8001 35.087 51.7826 34.8546C51.7826 33.8382 51.3788 32.8635 50.6602 32.1449C49.9415 31.4262 48.9668 31.0225 47.9505 31.0225C46.9342 31.0225 45.9595 31.4262 45.2408 32.1449C44.5221 32.8635 44.1184 33.8382 44.1184 34.8546C44.1007 35.087 44.1007 35.3204 44.1184 35.5529L38.7023 38.7548C38.5294 38.5998 38.341 38.4628 38.1402 38.3461C37.7043 38.0925 37.2221 37.9288 36.7219 37.8644C36.2217 37.8001 35.7138 37.8364 35.2278 37.9714C34.7418 38.0999 34.2859 38.3232 33.8864 38.6284C33.4869 38.9337 33.1517 39.3149 32.9 39.7502C32.6483 40.1854 32.4852 40.6661 32.42 41.1647C32.3547 41.6632 32.3887 42.1697 32.5198 42.6551C32.6473 43.166 32.8798 43.6449 33.2023 44.0613C33.5248 44.4776 33.9304 44.8224 34.3933 45.0736C34.5939 45.1803 34.8051 45.266 35.0235 45.329V51.767C34.8058 51.846 34.595 51.9429 34.3933 52.0565C33.5117 52.5661 32.868 53.4042 32.603 54.3875C32.3381 55.3705 32.4735 56.4187 32.9797 57.3023C33.3258 57.8951 33.8241 58.3846 34.423 58.72C35.022 59.0553 35.6997 59.2245 36.386 59.2098C37.0028 59.1802 37.6039 59.0051 38.1402 58.6989C38.341 58.5822 38.5294 58.4451 38.7023 58.2901L44.2546 61.492C44.237 61.7245 44.237 61.9579 44.2546 62.1903C44.2546 63.2066 44.6583 64.1813 45.377 64.9001C46.0957 65.6186 47.0705 66.0225 48.0867 66.0225C49.103 66.0225 50.0777 65.6186 50.7965 64.9001C51.515 64.1813 51.9189 63.2066 51.9189 62.1903C51.9364 61.9579 51.9364 61.7245 51.9189 61.492L57.4712 58.2901C57.644 58.4451 57.8324 58.5822 58.0332 58.6989C58.615 59.0293 59.2718 59.2052 59.9408 59.2098C60.627 59.2245 61.3048 59.0553 61.9037 58.72C62.5027 58.3846 63.001 57.8951 63.3471 57.3023C63.8533 56.4187 63.9887 55.3705 63.7236 54.3875C63.4588 53.4042 62.815 52.5661 61.9335 52.0565C61.7316 51.9429 61.5209 51.846 61.3033 51.767V45.2439C61.4491 45.1972 61.5913 45.1401 61.7291 45.0736ZM45.549 59.295L39.9626 55.9908C40.0562 55.53 40.0562 55.0551 39.9626 54.5942L45.532 51.3753C45.8789 51.6851 46.2843 51.9225 46.7242 52.0736V58.5115C46.2902 58.6646 45.8909 58.9019 45.549 59.2098V59.295ZM50.4882 37.8351L56.0746 41.0541C55.9809 41.5149 55.9809 41.9899 56.0746 42.4507L50.4882 45.5845C50.1413 45.2747 49.7359 45.0372 49.296 44.8862V38.4483C49.7359 38.2972 50.1413 38.0598 50.4882 37.75V37.8351ZM48.0186 49.7573C47.766 49.7573 47.5189 49.6823 47.3089 49.542C47.0989 49.4016 46.9351 49.2022 46.8385 48.9687C46.7418 48.7354 46.7165 48.4785 46.7658 48.2307C46.815 47.9829 46.9368 47.7554 47.1154 47.5767C47.2939 47.398 47.5216 47.2764 47.7694 47.227C48.0173 47.1778 48.2741 47.203 48.5074 47.2998C48.7408 47.3965 48.9404 47.5602 49.0807 47.7702C49.221 47.9803 49.296 48.2273 49.296 48.4799C49.2916 48.8173 49.1555 49.1397 48.917 49.3783C48.6784 49.6169 48.356 49.7528 48.0186 49.7573ZM46.7412 38.4483V44.8862C46.3013 45.0372 45.896 45.2747 45.549 45.5845L39.9797 42.3655C40.0733 41.9047 40.0733 41.4298 39.9797 40.9689L45.549 37.75C45.896 38.0598 46.3013 38.2972 46.7412 38.4483ZM38.6853 44.5626L44.2546 47.7816C44.1637 48.2426 44.1637 48.7171 44.2546 49.1782L38.7023 52.3801C38.3416 52.085 37.9324 51.8544 37.493 51.6989V45.2439C37.9304 45.0952 38.3351 44.8639 38.6853 44.5626ZM49.296 58.5115V52.0736C49.7359 51.9225 50.1413 51.6851 50.4882 51.3753L56.0575 54.5942C55.9639 55.0551 55.9639 55.53 56.0575 55.9908L50.4882 59.2098C50.1413 58.9 49.7359 58.6626 49.296 58.5115ZM58.5442 51.6989C58.1047 51.8544 57.6956 52.085 57.3349 52.3801L51.7826 49.1782C51.8736 48.7171 51.8736 48.2426 51.7826 47.7816L57.3519 44.5626C57.7021 44.8639 58.1068 45.0952 58.5442 45.2439V51.6989ZM59.8215 40.3899C59.9288 40.3735 60.0378 40.3735 60.1451 40.3899C60.3102 40.4287 60.4653 40.5019 60.6002 40.6046C60.7353 40.7073 60.847 40.8372 60.9286 40.986C61.0107 41.1291 61.0637 41.2871 61.0841 41.4509C61.1045 41.6146 61.0923 41.7808 61.0478 41.9397C61.009 42.1048 60.9357 42.2599 60.833 42.3949C60.7303 42.5298 60.6004 42.6417 60.4517 42.7232C60.1632 42.8803 59.8251 42.9201 59.508 42.8345C59.1909 42.7489 58.9189 42.5443 58.7485 42.2633C58.5775 41.9701 58.5287 41.6215 58.6123 41.2925C58.7032 40.9647 58.9166 40.6842 59.2084 40.5091C59.3997 40.4192 59.6103 40.3782 59.8215 40.3899ZM48.0186 33.5772C48.2712 33.5772 48.5182 33.6521 48.7283 33.7925C48.9383 33.9328 49.102 34.1323 49.1987 34.3658C49.2955 34.5992 49.3207 34.856 49.2715 35.1038C49.2221 35.3516 49.1005 35.5792 48.9218 35.7578C48.7431 35.9365 48.5156 36.0581 48.2678 36.1074C48.02 36.1567 47.7631 36.1314 47.5298 36.0347C47.2963 35.938 47.0969 35.7743 46.9565 35.5643C46.8162 35.3542 46.7412 35.1072 46.7412 34.8546C46.7457 34.5172 46.8816 34.1948 47.1202 33.9562C47.3588 33.7176 47.6812 33.5816 48.0186 33.5772ZM35.1086 41.0371C35.1901 40.8883 35.302 40.7584 35.4369 40.6557C35.5719 40.553 35.727 40.4798 35.8921 40.441C35.9993 40.4246 36.1084 40.4246 36.2157 40.441C36.4427 40.4392 36.6661 40.498 36.8629 40.6113C37.1546 40.7864 37.368 41.0669 37.459 41.3947C37.5426 41.7237 37.4937 42.0723 37.3227 42.3655C37.1524 42.6465 36.8805 42.851 36.5633 42.9367C36.2461 43.0223 35.9081 42.9825 35.6196 42.8254C35.4708 42.7439 35.3409 42.632 35.2382 42.4971C35.1355 42.3621 35.0623 42.207 35.0235 42.0419C34.9667 41.8778 34.9449 41.7035 34.9596 41.5305C34.9742 41.3574 35.025 41.1893 35.1086 41.0371ZM35.1086 55.9397C34.9434 55.6442 34.9006 55.2956 34.9894 54.9689C35.0283 54.8039 35.1014 54.6487 35.2041 54.5138C35.3068 54.3788 35.4368 54.2669 35.5855 54.1855C35.7753 54.0703 35.9938 54.0112 36.2157 54.0152H36.5393C36.7009 54.0571 36.8522 54.1317 36.984 54.2342C37.1158 54.3365 37.2253 54.465 37.3057 54.6113C37.3907 54.7531 37.4466 54.9107 37.47 55.0744C37.4934 55.2382 37.4838 55.4049 37.442 55.565C37.3509 55.8929 37.1375 56.1732 36.8458 56.3485C36.5591 56.5163 36.2189 56.5675 35.8955 56.4914C35.5722 56.4153 35.2904 56.2179 35.1086 55.9397ZM48.0186 63.3826C47.766 63.3826 47.5189 63.3076 47.3089 63.1673C47.0989 63.0269 46.9351 62.8275 46.8385 62.594C46.7418 62.3607 46.7165 62.1038 46.7658 61.856C46.815 61.6082 46.9368 61.3807 47.1154 61.202C47.2939 61.0233 47.5216 60.9017 47.7694 60.8523C48.0173 60.8031 48.2741 60.8283 48.5074 60.9251C48.7408 61.0218 48.9404 61.1855 49.0807 61.3955C49.221 61.6056 49.296 61.8526 49.296 62.1052C49.2916 62.4426 49.1555 62.765 48.917 63.0036C48.6784 63.2422 48.356 63.3781 48.0186 63.3826ZM60.9286 55.9397C60.7554 56.2175 60.4836 56.4193 60.1674 56.5047C59.8515 56.59 59.5148 56.5525 59.2254 56.3996C58.9337 56.2243 58.7203 55.944 58.6293 55.6161C58.5874 55.456 58.5779 55.2893 58.6012 55.1255C58.6247 54.9618 58.6806 54.8042 58.7656 54.6624C58.846 54.5161 58.9555 54.3876 59.0873 54.2853C59.2191 54.1828 59.3704 54.1082 59.532 54.0663H59.8556C60.0775 54.0623 60.296 54.1214 60.4858 54.2366C60.6345 54.318 60.7644 54.4299 60.8671 54.5649C60.9698 54.6998 61.043 54.855 61.0819 55.02C61.1468 55.3349 61.0921 55.6628 60.9286 55.9397Z" fill="#1D1E25"/>
</svg>
