<svg width="96" height="96" viewBox="0 0 96 96" fill="none" xmlns="http://www.w3.org/2000/svg">
<circle cx="48" cy="48" r="48" fill="white"/>
<path d="M50.7639 40.2998H45.2357C43.9281 40.3045 42.6754 40.8261 41.7507 41.7507C40.8261 42.6754 40.3045 43.9281 40.2998 45.2357V54.3537C40.3002 54.5954 40.3675 54.8324 40.4942 55.0382C40.6209 55.2441 40.8021 55.411 41.0178 55.5203C41.2054 55.6397 41.4236 55.702 41.646 55.6998C41.9089 55.6966 42.1651 55.6155 42.3819 55.4665L44.805 53.905H50.7639C52.0715 53.9003 53.3243 53.3787 54.2488 52.454C55.1736 51.5294 55.6952 50.2766 55.6998 48.9691V45.2357C55.6952 43.9281 55.1736 42.6754 54.2488 41.7507C53.3243 40.8261 52.0715 40.3045 50.7639 40.2998ZM53.0075 48.9691C53.0028 49.5626 52.7648 50.1305 52.3452 50.5503C51.9254 50.97 51.3575 51.208 50.7639 51.2126H44.4101C44.1491 51.2116 43.8934 51.2864 43.6742 51.428L42.9921 51.8588V45.2357C42.9921 44.6407 43.2285 44.07 43.6493 43.6493C44.07 43.2285 44.6407 42.9921 45.2357 42.9921H50.7639C51.3575 42.9968 51.9254 43.2347 52.3452 43.6544C52.7648 44.0742 53.0028 44.6422 53.0075 45.2357V48.9691Z" fill="#1D1E25"/>
<path d="M64.1538 42.1667C64.5108 42.1667 64.8533 42.0248 65.1057 41.7724C65.3582 41.5199 65.5 41.1775 65.5 40.8205C65.5 40.4635 65.3582 40.1211 65.1057 39.8686C64.8533 39.6162 64.5108 39.4744 64.1538 39.4744H62.7538C62.6483 37.8572 61.9584 36.3336 60.8123 35.1876C59.6665 34.0417 58.1428 33.3516 56.5256 33.2462V31.8462C56.5256 31.4891 56.3838 31.1467 56.1313 30.8943C55.8789 30.6418 55.5365 30.5 55.1795 30.5C54.8225 30.5 54.48 30.6418 54.2277 30.8943C53.9751 31.1467 53.8333 31.4891 53.8333 31.8462V33.1923H49.3462V31.8462C49.3462 31.4891 49.2044 31.1467 48.9518 30.8943C48.6995 30.6418 48.357 30.5 48 30.5C47.643 30.5 47.3005 30.6418 47.0482 30.8943C46.7956 31.1467 46.6538 31.4891 46.6538 31.8462V33.1923H42.1667V31.8462C42.1667 31.4891 42.0248 31.1467 41.7724 30.8943C41.5199 30.6418 41.1775 30.5 40.8205 30.5C40.4635 30.5 40.1211 30.6418 39.8686 30.8943C39.6162 31.1467 39.4744 31.4891 39.4744 31.8462V33.2462C37.8572 33.3516 36.3336 34.0417 35.1876 35.1876C34.0417 36.3336 33.3516 37.8572 33.2462 39.4744H31.8462C31.4891 39.4744 31.1467 39.6162 30.8943 39.8686C30.6418 40.1211 30.5 40.4635 30.5 40.8205C30.5 41.1775 30.6418 41.5199 30.8943 41.7724C31.1467 42.0248 31.4891 42.1667 31.8462 42.1667H33.1923V46.6538H31.8462C31.4891 46.6538 31.1467 46.7956 30.8943 47.0482C30.6418 47.3005 30.5 47.643 30.5 48C30.5 48.357 30.6418 48.6995 30.8943 48.9518C31.1467 49.2044 31.4891 49.3462 31.8462 49.3462H33.1923V53.8333H31.8462C31.4891 53.8333 31.1467 53.9751 30.8943 54.2277C30.6418 54.48 30.5 54.8225 30.5 55.1795C30.5 55.5365 30.6418 55.8789 30.8943 56.1313C31.1467 56.3838 31.4891 56.5256 31.8462 56.5256H33.2462C33.3516 58.1428 34.0417 59.6665 35.1876 60.8123C36.3336 61.9584 37.8572 62.6483 39.4744 62.7538V64.1538C39.4744 64.5108 39.6162 64.8533 39.8686 65.1057C40.1211 65.3582 40.4635 65.5 40.8205 65.5C41.1775 65.5 41.5199 65.3582 41.7724 65.1057C42.0248 64.8533 42.1667 64.5108 42.1667 64.1538V62.8077H46.6538V64.1538C46.6538 64.5108 46.7956 64.8533 47.0482 65.1057C47.3005 65.3582 47.643 65.5 48 65.5C48.357 65.5 48.6995 65.3582 48.9518 65.1057C49.2044 64.8533 49.3462 64.5108 49.3462 64.1538V62.8077H53.8333V64.1538C53.8333 64.5108 53.9751 64.8533 54.2277 65.1057C54.48 65.3582 54.8225 65.5 55.1795 65.5C55.5365 65.5 55.8789 65.3582 56.1313 65.1057C56.3838 64.8533 56.5256 64.5108 56.5256 64.1538V62.7538C58.1441 62.6521 59.6699 61.9632 60.8166 60.8166C61.9632 59.6699 62.6521 58.1441 62.7538 56.5256H64.1538C64.5108 56.5256 64.8533 56.3838 65.1057 56.1313C65.3582 55.8789 65.5 55.5365 65.5 55.1795C65.5 54.8225 65.3582 54.48 65.1057 54.2277C64.8533 53.9751 64.5108 53.8333 64.1538 53.8333H62.8077V49.3462H64.1538C64.5108 49.3462 64.8533 49.2044 65.1057 48.9518C65.3582 48.6995 65.5 48.357 65.5 48C65.5 47.643 65.3582 47.3005 65.1057 47.0482C64.8533 46.7956 64.5108 46.6538 64.1538 46.6538H62.8077V42.1667H64.1538ZM60.1154 56.0769C60.1154 57.1479 59.6898 58.1751 58.9326 58.9326C58.1751 59.6898 57.1479 60.1154 56.0769 60.1154H39.9231C38.852 60.1154 37.8248 59.6898 37.0675 58.9326C36.3101 58.1751 35.8846 57.1479 35.8846 56.0769V39.9231C35.8846 38.852 36.3101 37.8248 37.0675 37.0675C37.8248 36.3101 38.852 35.8846 39.9231 35.8846H56.0769C57.1479 35.8846 58.1751 36.3101 58.9326 37.0675C59.6898 37.8248 60.1154 38.852 60.1154 39.9231V56.0769Z" fill="#1D1E25"/>
</svg>
