<svg width="96" height="96" viewBox="0 0 96 96" fill="none" xmlns="http://www.w3.org/2000/svg">
<circle cx="48" cy="48" r="48" fill="white"/>
<path d="M50.1999 39.2394C50.1999 40.4538 49.2143 41.4395 47.9999 41.4395C46.7855 41.4395 45.7998 40.4538 45.7998 39.2394C45.7998 38.0256 46.7855 37.0394 47.9999 37.0394C49.2143 37.0394 50.1999 38.0256 50.1999 39.2394Z" stroke="#1D1E25" stroke-width="2.26285" stroke-miterlimit="10" stroke-linecap="round" stroke-linejoin="round"/>
<path d="M45.7998 48.0402C45.7998 46.8264 46.7854 45.8402 47.9999 45.8402C49.2142 45.8402 50.1999 46.8264 50.1999 48.0402C50.1999 49.2545 49.2142 50.2402 47.9999 50.2402C46.7854 50.2402 45.7998 49.2545 45.7998 48.0402Z" stroke="#1D1E25" stroke-width="2.26285" stroke-miterlimit="10" stroke-linecap="round" stroke-linejoin="round"/>
<path d="M46.4444 40.795L43.5998 43.6396H37.5498" stroke="#1D1E25" stroke-width="2.26285" stroke-miterlimit="10" stroke-linecap="round" stroke-linejoin="round"/>
<path d="M49.5547 46.4844L52.3993 43.6397H58.4493" stroke="#1D1E25" stroke-width="2.26285" stroke-miterlimit="10" stroke-linecap="round" stroke-linejoin="round"/>
<path d="M33.15 43.6396H31.5" stroke="#1D1E25" stroke-width="2.26285" stroke-miterlimit="10" stroke-linecap="round" stroke-linejoin="round"/>
<path d="M64.4996 43.6396H62.8496" stroke="#1D1E25" stroke-width="2.26285" stroke-miterlimit="10" stroke-linecap="round" stroke-linejoin="round"/>
<path d="M37.4996 33.1387L36.333 31.9721" stroke="#1D1E25" stroke-width="2.26285" stroke-miterlimit="10" stroke-linecap="round" stroke-linejoin="round"/>
<path d="M59.6676 55.3066L58.501 54.1401" stroke="#1D1E25" stroke-width="2.26285" stroke-miterlimit="10" stroke-linecap="round" stroke-linejoin="round"/>
<path d="M37.4996 54.1401L36.333 55.3066" stroke="#1D1E25" stroke-width="2.26285" stroke-miterlimit="10" stroke-linecap="round" stroke-linejoin="round"/>
<path d="M59.6676 31.9721L58.501 33.1387" stroke="#1D1E25" stroke-width="2.26285" stroke-miterlimit="10" stroke-linecap="round" stroke-linejoin="round"/>
<path d="M47.9999 57.2725H43.5998V57.2714C43.5997 56.1621 43.3698 55.0648 42.9245 54.0488C42.4792 53.0328 41.8282 52.1201 41.0126 51.3683C38.8786 49.4768 37.5498 46.7124 37.5498 43.6396C37.5498 37.8723 42.2326 33.1896 47.9999 33.1896M47.9999 57.2725H52.3999V57.2714C52.4 56.1621 52.63 55.0648 53.0753 54.0488C53.5205 53.0328 54.1715 52.1201 54.9871 51.3683C57.1211 49.4768 58.45 46.7124 58.45 43.6396C58.45 37.8723 53.7672 33.1896 47.9999 33.1896" stroke="#1D1E25" stroke-width="2.26285" stroke-miterlimit="10" stroke-linecap="round" stroke-linejoin="round"/>
<path d="M52.3996 57.273H43.5996V59.4731C43.5996 61.903 45.5697 63.873 47.9996 63.873C50.4295 63.873 52.3996 61.903 52.3996 59.4731V57.273Z" stroke="#1D1E25" stroke-width="2.26285" stroke-miterlimit="10" stroke-linecap="round" stroke-linejoin="round"/>
<path d="M48 63.8727V64.9727" stroke="#1D1E25" stroke-width="2.26285" stroke-miterlimit="10" stroke-linecap="round" stroke-linejoin="round"/>
<path d="M42.5 57.2725H53.5" stroke="#1D1E25" stroke-width="2.26285" stroke-miterlimit="10" stroke-linecap="round" stroke-linejoin="round"/>
</svg>
