<svg width="96" height="96" viewBox="0 0 96 96" fill="none" xmlns="http://www.w3.org/2000/svg">
<circle cx="48" cy="48" r="48" fill="white"/>
<path d="M34.6773 52.6324C34.9445 52.7078 35.1905 52.8441 35.3959 53.0306C35.6014 53.2172 35.7607 53.4486 35.8613 53.7071C35.9758 53.9573 36.0351 54.2291 36.0351 54.5042C36.0351 54.7793 35.9758 55.0511 35.8613 55.3013L35.072 56.7701C34.7828 57.3318 34.6791 57.9705 34.7757 58.5947C34.8724 59.219 35.1645 59.7966 35.6101 60.245L36.7761 61.4093C37.225 61.8542 37.8035 62.146 38.4287 62.2423C39.0538 62.3389 39.6935 62.2353 40.2561 61.9466L41.727 61.1585C41.9775 61.044 42.2498 60.9849 42.5253 60.9849C42.8008 60.9849 43.073 61.044 43.3235 61.1585C43.5823 61.259 43.8142 61.418 44.001 61.6231C44.1878 61.8282 44.3243 62.074 44.3998 62.3407L44.9021 63.9348C45.0875 64.5397 45.4635 65.0687 45.9741 65.443C46.4847 65.8174 47.1029 66.0171 47.7363 66.0126H57.4588C57.8156 66.0126 58.1578 65.8711 58.41 65.6191C58.6624 65.3672 58.8041 65.0255 58.8041 64.6692C58.8041 64.313 58.6624 63.9712 58.41 63.7194C58.1578 63.4673 57.8156 63.3258 57.4588 63.3258H49.8351V57.0567H50.9831C51.3004 57.953 51.925 58.7085 52.7462 59.1894C53.5675 59.6705 54.5325 59.8463 55.4709 59.6854C56.4092 59.5246 57.2606 59.0377 57.8742 58.3108C58.4879 57.584 58.8244 56.664 58.8244 55.7133C58.8244 54.7625 58.4879 53.8425 57.8742 53.1157C57.2606 52.3888 56.4092 51.902 55.4709 51.7411C54.5325 51.5803 53.5675 51.756 52.7462 52.2371C51.925 52.718 51.3004 53.4735 50.9831 54.3699H48.4897C46.9436 54.3699 45.4607 53.7566 44.3673 52.6648C43.274 51.5731 42.6598 50.0925 42.6598 48.5485C42.6598 47.0045 43.274 45.5239 44.3673 44.4321C45.4607 43.3404 46.9436 42.7271 48.4897 42.7271H50.9114C51.181 43.6337 51.7627 44.4161 52.5538 44.9362C53.3448 45.4563 54.2945 45.6806 55.235 45.5695C56.1757 45.4585 57.0467 45.0193 57.6945 44.3293C58.3424 43.6394 58.7252 42.7431 58.7758 41.7987C58.8262 40.8543 58.5408 39.9224 57.9702 39.1676C57.3996 38.4128 56.5802 37.8835 55.6567 37.6732C54.7334 37.4629 53.7651 37.5851 52.9233 38.0182C52.0813 38.4513 51.4195 39.1674 51.0549 40.0403H49.8351V33.6995H57.4588C57.8156 33.6995 58.1578 33.5579 58.41 33.306C58.6624 33.0541 58.8041 32.7124 58.8041 32.3561C58.8041 31.9998 58.6624 31.6581 58.41 31.4062C58.1578 31.1542 57.8156 31.0127 57.4588 31.0127H47.6645C47.0441 31.0261 46.4435 31.2339 45.9479 31.6068C45.4521 31.9796 45.0863 32.4987 44.9021 33.0905L44.3998 34.6846C44.3243 34.9514 44.1878 35.197 44.001 35.4022C43.8142 35.6073 43.5823 35.7664 43.3235 35.8668C43.073 35.9812 42.8008 36.0404 42.5253 36.0404C42.2498 36.0404 41.9775 35.9812 41.727 35.8668L40.2561 35.0787C39.6935 34.7899 39.0538 34.6864 38.4287 34.7829C37.8035 34.8794 37.225 35.1711 36.7761 35.6161L35.6101 36.7803C35.1645 37.2286 34.8724 37.8063 34.7757 38.4305C34.6791 39.0547 34.7828 39.6935 35.072 40.2553L35.8613 41.724C35.9758 41.9742 36.0351 42.246 36.0351 42.5211C36.0351 42.7962 35.9758 43.068 35.8613 43.3182C35.7607 43.5766 35.6014 43.8082 35.3959 43.9947C35.1905 44.1812 34.9445 44.3175 34.6773 44.3929L33.0808 44.8944C32.4766 45.0822 31.9485 45.4581 31.574 45.9676C31.1995 46.4768 30.9983 47.0926 31 47.7245V49.3724C31.0281 49.9796 31.2429 50.5634 31.6153 51.0442C31.9876 51.5249 32.4994 51.8794 33.0808 52.0592L34.6773 52.6324ZM54.7681 54.2982C55.0341 54.2982 55.2942 54.377 55.5155 54.5246C55.7367 54.6722 55.9091 54.882 56.011 55.1275C56.1129 55.3729 56.1394 55.643 56.0876 55.9037C56.0357 56.1643 55.9075 56.4036 55.7193 56.5915C55.5311 56.7794 55.2915 56.9073 55.0305 56.9592C54.7695 57.011 54.499 56.9845 54.2532 56.8827C54.0073 56.781 53.7972 56.6089 53.6494 56.388C53.5016 56.167 53.4227 55.9072 53.4227 55.6416C53.4274 55.2868 53.5705 54.9477 53.8218 54.6968C54.0731 54.4458 54.4127 54.3029 54.7681 54.2982ZM54.7681 40.1836C55.0341 40.1836 55.2942 40.2624 55.5155 40.41C55.7367 40.5576 55.9091 40.7674 56.011 41.0129C56.1129 41.2584 56.1394 41.5285 56.0876 41.7891C56.0357 42.0497 55.9075 42.289 55.7193 42.4769C55.5311 42.6648 55.2915 42.7927 55.0305 42.8446C54.7695 42.8964 54.499 42.8698 54.2532 42.7681C54.0073 42.6665 53.7972 42.4943 53.6494 42.2734C53.5016 42.0524 53.4227 41.7927 53.4227 41.527C53.4274 41.1721 53.5705 40.8331 53.8218 40.5822C54.0731 40.3313 54.4127 40.1882 54.7681 40.1836ZM33.6907 47.6529C33.6874 47.5947 33.7031 47.5372 33.7355 47.4886C33.7678 47.4401 33.8151 47.4036 33.8701 47.3842L35.4846 46.8827C36.1225 46.6869 36.7091 46.3525 37.2022 45.9032C37.6954 45.4542 38.0828 44.9018 38.3367 44.2854C38.5953 43.6681 38.7148 43.0016 38.6869 42.333C38.659 41.6645 38.4843 41.0102 38.1753 40.4165L37.386 38.9298C37.3511 38.8833 37.3322 38.8267 37.3322 38.7686C37.3322 38.7104 37.3511 38.6539 37.386 38.6074L38.552 37.4431C38.5985 37.4082 38.6552 37.3893 38.7134 37.3893C38.7716 37.3893 38.8283 37.4082 38.8749 37.4431L40.3637 38.2312C40.9583 38.5398 41.6136 38.7143 42.2831 38.7421C42.9526 38.77 43.6201 38.6506 44.2384 38.3924C44.8556 38.1389 45.409 37.752 45.8587 37.2596C46.3084 36.7672 46.6433 36.1814 46.8394 35.5444L47.0905 34.7563V40.1299C45.0994 40.4496 43.2873 41.4671 41.9793 43C40.6713 44.5329 39.9529 46.4809 39.9529 48.4947C39.9529 50.5086 40.6713 52.4565 41.9793 53.9894C43.2873 55.5223 45.0994 56.5399 47.0905 56.8596V62.2332L46.8394 61.4451C46.6367 60.8165 46.2996 60.2398 45.8512 59.7545C45.4029 59.2693 44.8541 58.8872 44.2431 58.635C43.6321 58.3829 42.9734 58.2664 42.3128 58.2938C41.6522 58.3212 41.0054 58.4919 40.4175 58.7941L38.9287 59.5643C38.8821 59.5993 38.8254 59.6181 38.7672 59.6181C38.709 59.6181 38.6524 59.5993 38.6058 59.5643L37.4398 58.4C37.4049 58.3535 37.386 58.2971 37.386 58.2388C37.386 58.1806 37.4049 58.1242 37.4398 58.0776L38.2291 56.5909C38.5376 55.9973 38.7123 55.3437 38.7411 54.6756C38.7698 54.0075 38.6519 53.3412 38.3955 52.7234C38.1392 52.1056 37.7506 51.5512 37.257 51.0993C36.7635 50.6472 36.1769 50.3085 35.5384 50.1068L33.9239 49.6232C33.8689 49.6039 33.8216 49.5673 33.7893 49.5188C33.7569 49.4702 33.7412 49.4127 33.7445 49.3545L33.6907 47.6529Z" fill="#1D1E25"/>
<path d="M61.9435 44.4463C61.1117 44.4479 60.3009 44.7072 59.623 45.1884C58.945 45.6697 58.4334 46.3493 58.1586 47.1331H48.4899C48.1331 47.1331 47.7908 47.2746 47.5386 47.5266C47.2862 47.7786 47.1445 48.1202 47.1445 48.4765C47.1445 48.8327 47.2862 49.1745 47.5386 49.4265C47.7908 49.6784 48.1331 49.8199 48.4899 49.8199H58.1586C58.4056 50.5174 58.8399 51.1333 59.4142 51.6007C59.9884 52.068 60.6805 52.3684 61.4143 52.4692C62.1482 52.5699 62.8959 52.4669 63.575 52.1715C64.2541 51.8763 64.8389 51.4001 65.2651 50.795C65.6913 50.1899 65.9425 49.4794 65.9911 48.7414C66.0399 48.0032 65.8842 47.266 65.5412 46.6102C65.198 45.9547 64.6811 45.406 64.0464 45.0243C63.4118 44.6426 62.6844 44.4426 61.9435 44.4463ZM61.9435 49.8199C61.6775 49.8199 61.4174 49.7411 61.196 49.5935C60.9749 49.4459 60.8025 49.2361 60.7006 48.9905C60.5987 48.7452 60.5721 48.475 60.624 48.2144C60.676 47.9538 60.8041 47.7145 60.9923 47.5266C61.1804 47.3387 61.4201 47.2108 61.6811 47.1589C61.9421 47.1071 62.2126 47.1338 62.4583 47.2354C62.7043 47.3371 62.9143 47.5092 63.0621 47.7303C63.2099 47.9511 63.2889 48.2108 63.2889 48.4765C63.2842 48.8313 63.1411 49.1704 62.8898 49.4213C62.6384 49.6723 62.2989 49.8152 61.9435 49.8199Z" fill="#1D1E25"/>
</svg>
