<svg width="96" height="96" viewBox="0 0 96 96" fill="none" xmlns="http://www.w3.org/2000/svg">
<circle cx="48" cy="48" r="48" fill="white"/>
<path d="M34.1073 40.3792V36.7894C34.1073 36.1944 34.3437 35.6237 34.7645 35.203C35.1852 34.7822 35.7559 34.5458 36.3509 34.5458H39.9407C40.2977 34.5458 40.6401 34.404 40.8926 34.1515C41.145 33.8991 41.2868 33.5567 41.2868 33.1997C41.2868 32.8427 41.145 32.5002 40.8926 32.2478C40.6401 31.9953 40.2977 31.8535 39.9407 31.8535H36.3509C35.0418 31.8535 33.7864 32.3735 32.8607 33.2992C31.9351 34.2249 31.415 35.4803 31.415 36.7894V40.3792C31.415 40.7362 31.5569 41.0786 31.8093 41.331C32.0618 41.5835 32.4042 41.7253 32.7612 41.7253C33.1182 41.7253 33.4606 41.5835 33.7131 41.331C33.9655 41.0786 34.1073 40.7362 34.1073 40.3792Z" fill="#1D1E25"/>
<path d="M63.2561 41.7429C63.6131 41.7429 63.9556 41.6011 64.2079 41.3486C64.4605 41.0962 64.6023 40.7538 64.6023 40.3967V36.807C64.6023 35.4979 64.0823 34.2424 63.1565 33.3168C62.2309 32.3911 60.9754 31.8711 59.6664 31.8711H56.0766C55.7196 31.8711 55.3772 32.0129 55.1248 32.2654C54.8723 32.5178 54.7305 32.8602 54.7305 33.2172C54.7305 33.5743 54.8723 33.9167 55.1248 34.1691C55.3772 34.4216 55.7196 34.5634 56.0766 34.5634H59.6664C60.2614 34.5634 60.8321 34.7998 61.2529 35.2205C61.6736 35.6413 61.91 36.212 61.91 36.807V40.3967C61.9146 40.7523 62.0579 41.092 62.3093 41.3435C62.5608 41.5949 62.9005 41.7382 63.2561 41.7429Z" fill="#1D1E25"/>
<path d="M59.6849 65.0759C60.9941 65.0759 62.2494 64.5559 63.1752 63.6301C64.1008 62.7045 64.6208 61.449 64.6208 60.14V56.5503C64.6208 56.1933 64.479 55.8508 64.2265 55.5984C63.9741 55.3459 63.6317 55.2041 63.2747 55.2041C62.9177 55.2041 62.5752 55.3459 62.3228 55.5984C62.0703 55.8508 61.9285 56.1933 61.9285 56.5503V60.14C61.9285 60.735 61.6921 61.3058 61.2714 61.7265C60.8507 62.1472 60.2799 62.3836 59.6849 62.3836H56.0952C55.7382 62.3836 55.3957 62.5254 55.1434 62.7779C54.8908 63.0303 54.749 63.3727 54.749 63.7297C54.749 64.0867 54.8908 64.4292 55.1434 64.6816C55.3957 64.9341 55.7382 65.0759 56.0952 65.0759H59.6849Z" fill="#1D1E25"/>
<path d="M32.7612 55.2393C32.4056 55.2439 32.0659 55.3873 31.8145 55.6388C31.563 55.8901 31.4197 56.2298 31.415 56.5854V60.1752C31.415 61.4843 31.9351 62.7397 32.8607 63.6655C33.7864 64.5911 35.0418 65.1111 36.3509 65.1111H39.9407C40.2977 65.1111 40.6401 64.9693 40.8926 64.7167C41.145 64.4644 41.2868 64.1219 41.2868 63.7649C41.2868 63.4079 41.145 63.0654 40.8926 62.8131C40.6401 62.5605 40.2977 62.4187 39.9407 62.4187H36.3509C35.7559 62.4187 35.1852 62.1824 34.7645 61.7616C34.3437 61.3409 34.1073 60.7702 34.1073 60.1752V56.5854C34.1027 56.2298 33.9594 55.8901 33.7079 55.6388C33.4565 55.3873 33.1168 55.2439 32.7612 55.2393Z" fill="#1D1E25"/>
<path d="M64.1538 47.1273H60.5641C60.2827 47.1275 60.0084 47.216 59.7797 47.3802C59.5513 47.5444 59.3798 47.7761 59.2897 48.0427L57.8538 52.3683C57.8456 52.4067 57.8294 52.443 57.8066 52.4747C57.7837 52.5067 57.7546 52.5334 57.721 52.5537C57.6873 52.5738 57.6499 52.5869 57.611 52.5921C57.5721 52.5973 57.5326 52.5945 57.4949 52.5837C57.4216 52.5839 57.3513 52.5561 57.298 52.5062C57.2445 52.4561 57.2122 52.3875 57.2077 52.3145L55.1795 39.6068C55.1145 39.1788 54.8972 38.7887 54.5674 38.5083C54.2375 38.228 53.8175 38.0763 53.3846 38.0812C52.9722 38.091 52.5741 38.2345 52.2503 38.4903C51.9265 38.7461 51.6947 39.1001 51.5897 39.4991L48.5385 53.9657L47.6949 45.2606C47.5554 44.5595 47.1729 43.93 46.6147 43.4834C46.0563 43.0368 45.3583 42.8017 44.6436 42.8196C43.9249 42.8306 43.2341 43.0995 42.6971 43.5772C42.16 44.0549 41.8126 44.7097 41.7179 45.4222L40.641 53.0145C40.6364 53.0924 40.6023 53.1654 40.5456 53.2187C40.4888 53.2722 40.4138 53.3018 40.3359 53.3016C40.2584 53.3097 40.1805 53.2909 40.1152 53.2483C40.0499 53.206 40.0011 53.1424 39.9769 53.0683L39.0256 49.6222C38.8187 48.9019 38.3827 48.2685 37.7835 47.8183C37.1842 47.3682 36.4546 47.1255 35.7051 47.1273H31.8462C31.4891 47.1273 31.1467 47.2691 30.8943 47.5216C30.6418 47.774 30.5 48.1164 30.5 48.4734C30.5 48.8304 30.6418 49.1729 30.8943 49.4254C31.1467 49.6778 31.4891 49.8196 31.8462 49.8196H35.6333C35.7996 49.8208 35.961 49.8756 36.0936 49.9757C36.2262 50.0761 36.3229 50.2164 36.3692 50.376L37.3564 53.8581C37.5522 54.5184 37.9669 55.0922 38.5322 55.4855C39.0975 55.8787 39.7798 56.0679 40.4669 56.022C41.154 55.976 41.805 55.6976 42.3129 55.2327C42.8208 54.7677 43.1553 54.1436 43.2615 53.4632L44.4103 45.817C44.4126 45.777 44.4226 45.7377 44.4402 45.7016C44.4576 45.6654 44.4822 45.6331 44.5122 45.6065C44.5422 45.5797 44.5772 45.5593 44.6151 45.5462C44.6531 45.5329 44.6933 45.5275 44.7333 45.5298C44.7922 45.5254 44.8514 45.5361 44.9049 45.5613C44.9584 45.5866 45.0044 45.6252 45.0385 45.6734L46.2949 59.2427C46.3245 59.709 46.5232 60.1485 46.8534 60.479C47.1839 60.8094 47.6234 61.0079 48.0897 61.0375H48.1974C48.6392 61.0388 49.0676 60.8877 49.4109 60.6098C49.7543 60.332 49.9912 59.9441 50.0821 59.5119L53.2051 44.794L54.5333 52.835C54.6362 53.5066 54.9628 54.1239 55.4602 54.5866C55.9577 55.0493 56.5969 55.3304 57.2743 55.3844C57.9515 55.4384 58.6273 55.2622 59.1917 54.8842C59.7562 54.5062 60.1766 53.9485 60.3846 53.3016L61.5154 49.9093H64.1538C64.5108 49.9093 64.8533 49.7675 65.1057 49.5152C65.3582 49.2626 65.5 48.9202 65.5 48.5632C65.5 48.2062 65.3582 47.8637 65.1057 47.6114C64.8533 47.3588 64.5108 47.217 64.1538 47.217V47.1273Z" fill="#1D1E25"/>
</svg>
