<svg width="56" height="56" viewBox="0 0 56 56" fill="none" xmlns="http://www.w3.org/2000/svg">
<circle cx="28" cy="28" r="28" fill="white"/>
<path d="M21.3337 27.0003C22.4544 27.0003 23.55 26.6679 24.4819 26.0453C25.4138 25.4227 26.1401 24.5376 26.569 23.5022C26.9979 22.4668 27.1101 21.3274 26.8914 20.2282C26.6729 19.1289 26.1331 18.1192 25.3406 17.3267C24.5481 16.5342 23.5384 15.9945 22.4392 15.7759C21.3399 15.5572 20.2006 15.6694 19.1651 16.0983C18.1297 16.5272 17.2447 17.2536 16.622 18.1854C15.9993 19.1173 15.667 20.2129 15.667 21.3337C15.6705 22.8355 16.2687 24.2748 17.3306 25.3367C18.3926 26.3986 19.8318 26.9969 21.3337 27.0003ZM21.3337 17.667C22.0589 17.667 22.7678 17.882 23.3708 18.2849C23.9737 18.6878 24.4437 19.2605 24.7212 19.9305C24.9987 20.6005 25.0714 21.3377 24.9299 22.049C24.7884 22.7603 24.4392 23.4136 23.9264 23.9264C23.4136 24.4392 22.7603 24.7884 22.049 24.9299C21.3377 25.0714 20.6005 24.9987 19.9305 24.7212C19.2605 24.4437 18.6878 23.9737 18.2849 23.3708C17.882 22.7678 17.667 22.0589 17.667 21.3337C17.6705 20.3623 18.0579 19.4317 18.7448 18.7448C19.4317 18.0579 20.3623 17.6705 21.3337 17.667Z" fill="#293438"/>
<path d="M21.3334 23.8934C21.8398 23.8934 22.3347 23.7433 22.7557 23.462C23.1767 23.1807 23.5048 22.7809 23.6986 22.3131C23.8923 21.8453 23.943 21.3306 23.8443 20.834C23.7455 20.3374 23.5017 19.8813 23.1436 19.5232C22.7856 19.1652 22.3295 18.9214 21.8329 18.8226C21.3363 18.7239 20.8215 18.7745 20.3538 18.9683C19.886 19.1621 19.4862 19.4902 19.2049 19.9112C18.9236 20.3322 18.7734 20.8271 18.7734 21.3334C18.7734 21.6696 18.8397 22.0025 18.9683 22.3131C19.097 22.6237 19.2855 22.9059 19.5232 23.1436C20.0033 23.6237 20.6545 23.8934 21.3334 23.8934ZM21.3334 20.7734C21.4442 20.7734 21.5525 20.8063 21.6446 20.8678C21.7367 20.9293 21.8084 21.0168 21.8508 21.1191C21.8932 21.2215 21.9043 21.3341 21.8827 21.4427C21.8611 21.5513 21.8077 21.6511 21.7294 21.7294C21.6511 21.8077 21.5513 21.8611 21.4427 21.8827C21.3341 21.9043 21.2215 21.8932 21.1191 21.8508C21.0168 21.8084 20.9293 21.7367 20.8678 21.6446C20.8063 21.5525 20.7734 21.4442 20.7734 21.3334C20.7734 21.1849 20.8324 21.0425 20.9375 20.9375C21.0425 20.8324 21.1849 20.7734 21.3334 20.7734Z" fill="#293438"/>
<path d="M34.6667 27.0003C35.7875 27.0003 36.8831 26.6679 37.8149 26.0453C38.7468 25.4227 39.4731 24.5376 39.902 23.5022C40.3309 22.4668 40.4431 21.3274 40.2244 20.2282C40.0057 19.1289 39.4661 18.1192 38.6736 17.3267C37.8811 16.5342 36.8715 15.9945 35.7721 15.7759C34.6729 15.5572 33.5336 15.6694 32.4981 16.0983C31.4627 16.5272 30.5777 17.2536 29.9551 18.1854C29.3324 19.1173 29 20.2129 29 21.3337C29.0035 22.8355 29.6017 24.2748 30.6636 25.3367C31.7256 26.3986 33.1648 26.9969 34.6667 27.0003ZM34.6667 17.667C35.3919 17.667 36.1008 17.882 36.7037 18.2849C37.3068 18.6878 37.7767 19.2605 38.0543 19.9305C38.3317 20.6005 38.4044 21.3377 38.2629 22.049C38.1213 22.7603 37.7721 23.4136 37.2593 23.9264C36.7465 24.4392 36.0932 24.7884 35.382 24.9299C34.6708 25.0714 33.9335 24.9987 33.2635 24.7212C32.5935 24.4437 32.0208 23.9737 31.618 23.3708C31.2151 22.7678 31 22.0589 31 21.3337C31.0035 20.3623 31.3909 19.4317 32.0779 18.7448C32.7647 18.0579 33.6953 17.6705 34.6667 17.667Z" fill="#293438"/>
<path d="M34.6664 23.8934C35.1728 23.8934 35.6678 23.7433 36.0887 23.462C36.5098 23.1807 36.8378 22.7809 37.0316 22.3131C37.2254 21.8453 37.276 21.3306 37.1772 20.834C37.0784 20.3374 36.8347 19.8813 36.4767 19.5232C36.1186 19.1652 35.6624 18.9214 35.1659 18.8226C34.6692 18.7239 34.1546 18.7745 33.6868 18.9683C33.219 19.1621 32.8192 19.4902 32.5379 19.9112C32.2566 20.3322 32.1064 20.8271 32.1064 21.3334C32.1064 21.6696 32.1727 22.0025 32.3014 22.3131C32.43 22.6237 32.6186 22.9059 32.8563 23.1436C33.3363 23.6237 33.9875 23.8934 34.6664 23.8934ZM34.6664 20.7734C34.7772 20.7734 34.8855 20.8063 34.9776 20.8678C35.0696 20.9293 35.1415 21.0168 35.1838 21.1191C35.2262 21.2215 35.2374 21.3341 35.2156 21.4427C35.194 21.5513 35.1407 21.6511 35.0624 21.7294C34.9842 21.8077 34.8843 21.8611 34.7758 21.8827C34.6671 21.9043 34.5544 21.8932 34.4522 21.8508C34.3498 21.8084 34.2624 21.7367 34.2008 21.6446C34.1394 21.5525 34.1064 21.4442 34.1064 21.3334C34.1064 21.1849 34.1655 21.0425 34.2704 20.9375C34.3755 20.8324 34.5179 20.7734 34.6664 20.7734Z" fill="#293438"/>
<path d="M21.3337 40.3333C22.4544 40.3333 23.55 40.0009 24.4819 39.3783C25.4138 38.7557 26.1401 37.8707 26.569 36.8352C26.9979 35.7997 27.1101 34.6604 26.8914 33.5612C26.6729 32.4619 26.1331 31.4523 25.3406 30.6597C24.5481 29.8672 23.5384 29.3276 22.4392 29.1089C21.3399 28.8903 20.2006 29.0024 19.1651 29.4313C18.1297 29.8603 17.2447 30.5865 16.622 31.5184C15.9993 32.4503 15.667 33.5459 15.667 34.6667C15.6705 36.1685 16.2687 37.6077 17.3306 38.6697C18.3926 39.7316 19.8318 40.3299 21.3337 40.3333ZM21.3337 31C22.0589 31 22.7678 31.2151 23.3708 31.618C23.9737 32.0208 24.4437 32.5935 24.7212 33.2635C24.9987 33.9335 25.0714 34.6708 24.9299 35.382C24.7884 36.0932 24.4392 36.7467 23.9264 37.2593C23.4136 37.7721 22.7603 38.1215 22.049 38.2629C21.3377 38.4044 20.6005 38.3317 19.9305 38.0543C19.2605 37.7767 18.6878 37.3068 18.2849 36.7037C17.882 36.1008 17.667 35.3919 17.667 34.6667C17.6705 33.6953 18.0579 32.7647 18.7448 32.0779C19.4317 31.3909 20.3623 31.0035 21.3337 31Z" fill="#293438"/>
<path d="M21.3334 37.2265C21.8398 37.2265 22.3347 37.0763 22.7557 36.795C23.1767 36.5137 23.5048 36.1139 23.6986 35.6461C23.8923 35.1783 23.943 34.6637 23.8443 34.167C23.7455 33.6705 23.5017 33.2143 23.1436 32.8562C22.7856 32.4982 22.3295 32.2545 21.8329 32.1557C21.3363 32.0569 20.8215 32.1075 20.3538 32.3013C19.886 32.4951 19.4862 32.8233 19.2049 33.2442C18.9236 33.6651 18.7734 34.1601 18.7734 34.6665C18.7734 35.3454 19.0431 35.9966 19.5232 36.4766C20.0033 36.9567 20.6545 37.2265 21.3334 37.2265ZM21.3334 34.1065C21.4442 34.1065 21.5525 34.1393 21.6446 34.2009C21.7367 34.2623 21.8084 34.3498 21.8508 34.4522C21.8932 34.5545 21.9043 34.6671 21.8827 34.7757C21.8611 34.8843 21.8077 34.9841 21.7294 35.0625C21.6511 35.1407 21.5513 35.1941 21.4427 35.2157C21.3341 35.2373 21.2215 35.2262 21.1191 35.1838C21.0168 35.1414 20.9293 35.0697 20.8678 34.9775C20.8063 34.8855 20.7734 34.7773 20.7734 34.6665C20.7734 34.5179 20.8324 34.3755 20.9375 34.2705C21.0425 34.1654 21.1849 34.1065 21.3334 34.1065Z" fill="#293438"/>
<path d="M34.6667 40.3333C35.7875 40.3333 36.8831 40.0009 37.8149 39.3783C38.7468 38.7557 39.4731 37.8707 39.902 36.8352C40.3309 35.7997 40.4431 34.6604 40.2244 33.5612C40.0057 32.4619 39.4661 31.4523 38.6736 30.6597C37.8811 29.8672 36.8715 29.3276 35.7721 29.1089C34.6729 28.8903 33.5336 29.0024 32.4981 29.4313C31.4627 29.8603 30.5777 30.5865 29.9551 31.5184C29.3324 32.4503 29 33.5459 29 34.6667C29.0035 36.1685 29.6017 37.6077 30.6636 38.6697C31.7256 39.7316 33.1648 40.3299 34.6667 40.3333ZM34.6667 31C35.3919 31 36.1008 31.2151 36.7037 31.618C37.3068 32.0208 37.7767 32.5935 38.0543 33.2635C38.3317 33.9335 38.4044 34.6708 38.2629 35.382C38.1213 36.0932 37.7721 36.7467 37.2593 37.2593C36.7465 37.7721 36.0932 38.1215 35.382 38.2629C34.6708 38.4044 33.9335 38.3317 33.2635 38.0543C32.5935 37.7767 32.0208 37.3068 31.618 36.7037C31.2151 36.1008 31 35.3919 31 34.6667C31.0035 33.6953 31.3909 32.7647 32.0779 32.0779C32.7647 31.3909 33.6953 31.0035 34.6667 31Z" fill="#293438"/>
<path d="M34.6664 37.2265C35.1728 37.2265 35.6678 37.0763 36.0887 36.795C36.5098 36.5137 36.8378 36.1139 37.0316 35.6461C37.2254 35.1783 37.276 34.6637 37.1772 34.167C37.0784 33.6705 36.8347 33.2143 36.4767 32.8562C36.1186 32.4982 35.6624 32.2545 35.1659 32.1557C34.6692 32.0569 34.1546 32.1075 33.6868 32.3013C33.219 32.4951 32.8192 32.8233 32.5379 33.2442C32.2566 33.6651 32.1064 34.1601 32.1064 34.6665C32.1064 35.3454 32.3762 35.9966 32.8563 36.4766C33.3363 36.9567 33.9875 37.2265 34.6664 37.2265ZM34.6664 34.1065C34.7772 34.1065 34.8855 34.1393 34.9776 34.2009C35.0696 34.2623 35.1415 34.3498 35.1838 34.4522C35.2262 34.5545 35.2374 34.6671 35.2156 34.7757C35.194 34.8843 35.1407 34.9841 35.0624 35.0625C34.9842 35.1407 34.8843 35.1941 34.7758 35.2157C34.6671 35.2373 34.5544 35.2262 34.4522 35.1838C34.3498 35.1414 34.2624 35.0697 34.2008 34.9775C34.1394 34.8855 34.1064 34.7773 34.1064 34.6665C34.1064 34.5179 34.1655 34.3755 34.2704 34.2705C34.3755 34.1654 34.5179 34.1065 34.6664 34.1065Z" fill="#293438"/>
</svg>
