<svg width="56" height="56" viewBox="0 0 56 56" fill="none" xmlns="http://www.w3.org/2000/svg">
<circle cx="28" cy="28" r="28" fill="white"/>
<path d="M35.4531 21.0002C35.0839 19.2979 34.143 17.7733 32.7871 16.6799C31.4311 15.5865 29.7416 14.9902 27.9998 14.9902C26.2579 14.9902 24.5685 15.5865 23.2125 16.6799C21.8565 17.7733 20.9157 19.2979 20.5464 21.0002C19.0435 21.0161 17.6085 21.6284 16.5571 22.7023C15.5056 23.7763 14.9239 25.2239 14.9398 26.7268C14.9557 28.2298 15.568 29.6647 16.6419 30.7162C17.7159 31.7676 19.1635 32.3494 20.6664 32.3335H21.3331L20.3598 33.5202C20.0341 33.4046 19.692 33.3415 19.3464 33.3335C18.7531 33.3335 18.1731 33.5095 17.6797 33.8391C17.1864 34.1687 16.8019 34.6372 16.5748 35.1855C16.3477 35.7336 16.2883 36.3368 16.4041 36.9187C16.5198 37.5007 16.8056 38.0352 17.2251 38.4548C17.6447 38.8744 18.1792 39.16 18.7612 39.2759C19.3431 39.3916 19.9463 39.3322 20.4945 39.1051C21.0427 38.878 21.5112 38.4935 21.8409 38.0002C22.1705 37.5068 22.3464 36.9268 22.3464 36.3335C22.3478 35.7911 22.1952 35.2594 21.9064 34.8002L23.8664 32.4135V32.3335H26.9464V35.1868C26.2792 35.4227 25.7168 35.8868 25.3588 36.4974C25.0007 37.1078 24.87 37.8251 24.9896 38.5226C25.1093 39.22 25.4718 39.8528 26.0128 40.309C26.5539 40.7651 27.2387 41.0152 27.9464 41.0152C28.6542 41.0152 29.3391 40.7651 29.8802 40.309C30.4212 39.8528 30.7836 39.22 30.9032 38.5226C31.023 37.8251 30.8922 37.1078 30.534 36.4974C30.176 35.8868 29.6136 35.4227 28.9464 35.1868V32.3335H31.9998L32.1598 32.5735L34.1331 34.9602C33.8456 35.4199 33.6932 35.9512 33.6931 36.4935C33.6931 37.0868 33.8691 37.6668 34.1987 38.1602C34.5283 38.6535 34.9968 39.038 35.5451 39.2651C36.0932 39.4922 36.6964 39.5516 37.2784 39.4359C37.8603 39.32 38.3948 39.0344 38.8144 38.6148C39.234 38.1952 39.5198 37.6607 39.6355 37.0787C39.7512 36.4968 39.6918 35.8936 39.4647 35.3455C39.2376 34.7972 38.8532 34.3287 38.3598 33.9991C37.8664 33.6695 37.2864 33.4935 36.6931 33.4935C36.346 33.4979 36.0026 33.5658 35.6798 33.6935L34.5598 32.3602H35.3598C36.8627 32.376 38.3103 31.7943 39.3843 30.7428C40.4583 29.6914 41.0706 28.2564 41.0864 26.7535C41.1023 25.2506 40.5206 23.8029 39.4691 22.729C38.4176 21.655 36.9827 21.0427 35.4798 21.0268L35.4531 21.0002ZM19.3464 37.3335C19.1487 37.3335 18.9553 37.2748 18.7909 37.165C18.6264 37.0551 18.4983 36.899 18.4226 36.7162C18.3469 36.5335 18.3271 36.3324 18.3657 36.1384C18.4042 35.9444 18.4995 35.7663 18.6393 35.6264C18.7792 35.4866 18.9574 35.3912 19.1513 35.3527C19.3453 35.3142 19.5464 35.3339 19.7291 35.4096C19.9119 35.4854 20.068 35.6135 20.1779 35.7779C20.2878 35.9424 20.3464 36.1358 20.3464 36.3335C20.343 36.5976 20.2365 36.85 20.0497 37.0368C19.8629 37.2236 19.6106 37.33 19.3464 37.3335ZM27.9998 39.0002C27.802 39.0002 27.6087 38.9415 27.4442 38.8316C27.2798 38.7218 27.1516 38.5656 27.0759 38.3828C27.0002 38.2002 26.9804 37.9991 27.019 37.8051C27.0576 37.6111 27.1528 37.433 27.2927 37.2931C27.4326 37.1532 27.6107 37.0579 27.8047 37.0194C27.9987 36.9808 28.1998 37.0006 28.3824 37.0763C28.5652 37.152 28.7214 37.2802 28.8312 37.4446C28.9411 37.6091 28.9998 37.8024 28.9998 38.0002C28.9963 38.2643 28.8899 38.5167 28.7031 38.7035C28.5163 38.8903 28.2639 38.9967 27.9998 39.0002ZM37.6531 36.4935C37.6531 36.6912 37.5944 36.8846 37.4846 37.0491C37.3747 37.2135 37.2186 37.3416 37.0358 37.4174C36.8531 37.4931 36.652 37.5128 36.458 37.4743C36.264 37.4356 36.0859 37.3404 35.946 37.2006C35.8062 37.0607 35.711 36.8826 35.6723 36.6886C35.6338 36.4946 35.6535 36.2935 35.7292 36.1108C35.805 35.928 35.9331 35.7719 36.0975 35.662C36.262 35.5522 36.4554 35.4935 36.6531 35.4935C36.7855 35.4918 36.917 35.5163 37.0399 35.5658C37.1627 35.6152 37.2746 35.6886 37.3688 35.7816C37.4631 35.8747 37.538 35.9855 37.5891 36.1078C37.6402 36.2299 37.6664 36.3611 37.6664 36.4935H37.6531ZM35.3331 30.3335H20.6664C19.694 30.3335 18.7613 29.9472 18.0737 29.2595C17.3861 28.5719 16.9998 27.6392 16.9998 26.6668C16.9998 25.6943 17.3861 24.7617 18.0737 24.0741C18.7613 23.3865 19.694 23.0002 20.6664 23.0002C20.8594 23.0016 21.0516 23.0239 21.2398 23.0668C21.5136 23.1014 21.7904 23.0299 22.0131 22.8668C22.1194 22.78 22.2072 22.6727 22.2714 22.5513C22.3355 22.4299 22.3746 22.2969 22.3864 22.1602C22.4845 20.7383 23.1185 19.4066 24.1604 18.434C25.2023 17.4615 26.5746 16.9206 27.9998 16.9206C29.4251 16.9206 30.7972 17.4615 31.8391 18.434C32.8811 19.4066 33.5151 20.7383 33.6131 22.1602C33.625 22.2969 33.664 22.4299 33.7282 22.5513C33.7923 22.6727 33.8802 22.78 33.9864 22.8668C34.2092 23.0299 34.4859 23.1014 34.7598 23.0668C34.9479 23.0239 35.1402 23.0016 35.3331 23.0002C36.3056 23.0002 37.2382 23.3865 37.9259 24.0741C38.6135 24.7617 38.9998 25.6943 38.9998 26.6668C38.9998 27.6392 38.6135 28.5719 37.9259 29.2595C37.2382 29.9472 36.3056 30.3335 35.3331 30.3335Z" fill="#293438"/>
</svg>
