<svg width="56" height="56" viewBox="0 0 56 56" fill="none" xmlns="http://www.w3.org/2000/svg">
<circle cx="28" cy="28" r="28" fill="white"/>
<path d="M17.7333 31.0933C17.9319 31.1495 18.1148 31.2509 18.2675 31.3897C18.4202 31.5287 18.5386 31.7009 18.6133 31.8933C18.6985 32.0796 18.7426 32.2819 18.7426 32.4867C18.7426 32.6915 18.6985 32.8937 18.6133 33.08L18.0267 34.1733C17.8117 34.5915 17.7346 35.0669 17.8065 35.5316C17.8783 35.9963 18.0954 36.4263 18.4267 36.76L19.2933 37.6267C19.627 37.9579 20.057 38.1751 20.5217 38.2468C20.9864 38.3187 21.4618 38.2416 21.88 38.0267L22.9733 37.44C23.1595 37.3548 23.3619 37.3108 23.5667 37.3108C23.7714 37.3108 23.9738 37.3548 24.16 37.44C24.3524 37.5148 24.5247 37.6332 24.6636 37.7859C24.8024 37.9385 24.9039 38.1215 24.96 38.32L25.3333 39.5067C25.4712 39.9569 25.7507 40.3507 26.1301 40.6293C26.5097 40.908 26.9692 41.0567 27.44 41.0533H34.6667C34.9319 41.0533 35.1863 40.948 35.3737 40.7604C35.5613 40.5729 35.6667 40.3185 35.6667 40.0533C35.6667 39.7881 35.5613 39.5337 35.3737 39.3463C35.1863 39.1587 34.9319 39.0533 34.6667 39.0533H29V34.3867H29.8533C30.0892 35.0539 30.5535 35.6163 31.1639 35.9743C31.7743 36.3324 32.4916 36.4632 33.1891 36.3435C33.8865 36.2237 34.5193 35.8613 34.9755 35.3203C35.4316 34.7792 35.6817 34.0944 35.6817 33.3867C35.6817 32.6789 35.4316 31.9941 34.9755 31.4531C34.5193 30.912 33.8865 30.5496 33.1891 30.4299C32.4916 30.3101 31.7743 30.4409 31.1639 30.7991C30.5535 31.1571 30.0892 31.7195 29.8533 32.3867H28C26.8508 32.3867 25.7485 31.9301 24.9359 31.1175C24.1232 30.3048 23.6667 29.2027 23.6667 28.0533C23.6667 26.904 24.1232 25.8019 24.9359 24.9892C25.7485 24.1765 26.8508 23.72 28 23.72H29.8C30.0004 24.3949 30.4328 24.9773 31.0208 25.3644C31.6088 25.7516 32.3147 25.9185 33.0137 25.8359C33.7129 25.7532 34.3604 25.4263 34.8419 24.9127C35.3235 24.3991 35.608 23.7319 35.6456 23.0289C35.6831 22.3259 35.4709 21.6323 35.0468 21.0704C34.6227 20.5085 34.0136 20.1145 33.3272 19.958C32.6409 19.8014 31.9212 19.8924 31.2955 20.2148C30.6696 20.5371 30.1777 21.0703 29.9067 21.72H29V17H34.6667C34.9319 17 35.1863 16.8946 35.3737 16.7071C35.5613 16.5196 35.6667 16.2652 35.6667 16C35.6667 15.7348 35.5613 15.4804 35.3737 15.2929C35.1863 15.1054 34.9319 15 34.6667 15H27.3867C26.9255 15.01 26.4791 15.1647 26.1107 15.4422C25.7421 15.7198 25.4703 16.1061 25.3333 16.5467L24.96 17.7333C24.9039 17.9319 24.8024 18.1148 24.6636 18.2675C24.5247 18.4202 24.3524 18.5386 24.16 18.6133C23.9738 18.6985 23.7714 18.7426 23.5667 18.7426C23.3619 18.7426 23.1595 18.6985 22.9733 18.6133L21.88 18.0267C21.4618 17.8117 20.9864 17.7346 20.5217 17.8065C20.057 17.8783 19.627 18.0954 19.2933 18.4267L18.4267 19.2933C18.0954 19.627 17.8783 20.057 17.8065 20.5217C17.7346 20.9863 17.8117 21.4618 18.0267 21.88L18.6133 22.9733C18.6985 23.1595 18.7426 23.3619 18.7426 23.5667C18.7426 23.7714 18.6985 23.9738 18.6133 24.16C18.5386 24.3524 18.4202 24.5247 18.2675 24.6635C18.1148 24.8024 17.9319 24.9039 17.7333 24.96L16.5467 25.3333C16.0975 25.4731 15.705 25.7529 15.4266 26.1321C15.1483 26.5112 14.9987 26.9696 15 27.44V28.6667C15.0209 29.1187 15.1806 29.5532 15.4573 29.9111C15.7341 30.2689 16.1145 30.5328 16.5467 30.6667L17.7333 31.0933ZM32.6667 32.3333C32.8644 32.3333 33.0577 32.392 33.2223 32.5019C33.3867 32.6117 33.5148 32.7679 33.5905 32.9507C33.6663 33.1333 33.686 33.3344 33.6475 33.5284C33.6089 33.7224 33.5136 33.9005 33.3737 34.0404C33.2339 34.1803 33.0557 34.2755 32.8617 34.3141C32.6677 34.3527 32.4667 34.3329 32.284 34.2572C32.1012 34.1815 31.9451 34.0533 31.8352 33.8889C31.7253 33.7244 31.6667 33.5311 31.6667 33.3333C31.6701 33.0692 31.7765 32.8168 31.9633 32.63C32.1501 32.4432 32.4025 32.3368 32.6667 32.3333ZM32.6667 21.8267C32.8644 21.8267 33.0577 21.8853 33.2223 21.9952C33.3867 22.1051 33.5148 22.2613 33.5905 22.444C33.6663 22.6267 33.686 22.8278 33.6475 23.0218C33.6089 23.2157 33.5136 23.3939 33.3737 23.5338C33.2339 23.6736 33.0557 23.7689 32.8617 23.8075C32.6677 23.846 32.4667 23.8262 32.284 23.7505C32.1012 23.6749 31.9451 23.5467 31.8352 23.3822C31.7253 23.2178 31.6667 23.0245 31.6667 22.8267C31.6701 22.5625 31.7765 22.3102 31.9633 22.1234C32.1501 21.9366 32.4025 21.8301 32.6667 21.8267ZM17 27.3867C16.9975 27.3433 17.0092 27.3005 17.0333 27.2644C17.0573 27.2283 17.0924 27.2011 17.1333 27.1867L18.3333 26.8133C18.8075 26.6676 19.2435 26.4187 19.6101 26.0843C19.9766 25.75 20.2646 25.3388 20.4533 24.88C20.6455 24.4205 20.7344 23.9243 20.7136 23.4267C20.6929 22.929 20.5631 22.4419 20.3333 22L19.7467 20.8933C19.7207 20.8587 19.7067 20.8166 19.7067 20.7733C19.7067 20.7301 19.7207 20.6879 19.7467 20.6533L20.6133 19.7867C20.648 19.7607 20.6901 19.7467 20.7333 19.7467C20.7766 19.7467 20.8187 19.7607 20.8533 19.7867L21.96 20.3733C22.402 20.6031 22.889 20.7329 23.3867 20.7536C23.8843 20.7744 24.3805 20.6855 24.84 20.4933C25.2988 20.3046 25.7101 20.0166 26.0444 19.6501C26.3787 19.2835 26.6276 18.8475 26.7733 18.3733L26.96 17.7867V21.7867C25.48 22.0247 24.1331 22.7821 23.1609 23.9232C22.1886 25.0642 21.6547 26.5143 21.6547 28.0133C21.6547 29.5124 22.1886 30.9624 23.1609 32.1035C24.1331 33.2445 25.48 34.002 26.96 34.24V38.24L26.7733 37.6533C26.6227 37.1855 26.3721 36.7561 26.0388 36.3949C25.7056 36.0337 25.2977 35.7493 24.8435 35.5616C24.3894 35.3739 23.8998 35.2872 23.4087 35.3076C22.9177 35.328 22.437 35.4551 22 35.68L20.8933 36.2533C20.8587 36.2793 20.8166 36.2933 20.7733 36.2933C20.7301 36.2933 20.688 36.2793 20.6533 36.2533L19.7867 35.3867C19.7607 35.352 19.7467 35.31 19.7467 35.2667C19.7467 35.2233 19.7607 35.1813 19.7867 35.1467L20.3733 34.04C20.6026 33.5981 20.7325 33.1116 20.7539 32.6143C20.7753 32.1169 20.6876 31.6209 20.497 31.1611C20.3065 30.7012 20.0177 30.2885 19.6508 29.9521C19.2839 29.6156 18.8479 29.3635 18.3733 29.2133L17.1733 28.8533C17.1324 28.8389 17.0973 28.8117 17.0733 28.7756C17.0492 28.7395 17.0375 28.6967 17.04 28.6533L17 27.3867Z" fill="#293438"/>
<path d="M38 25C37.3817 25.0012 36.7791 25.1942 36.2752 25.5524C35.7712 25.9107 35.3909 26.4165 35.1867 27H28C27.7348 27 27.4804 27.1053 27.2929 27.2929C27.1053 27.4805 27 27.7348 27 28C27 28.2652 27.1053 28.5196 27.2929 28.7072C27.4804 28.8947 27.7348 29 28 29H35.1867C35.3703 29.5192 35.6931 29.9777 36.12 30.3256C36.5468 30.6735 37.0612 30.8971 37.6067 30.9721C38.1521 31.0471 38.7079 30.9704 39.2127 30.7505C39.7175 30.5308 40.1521 30.1763 40.4689 29.7259C40.7857 29.2755 40.9724 28.7465 41.0085 28.1972C41.0448 27.6477 40.9291 27.0989 40.6741 26.6108C40.4191 26.1228 40.0348 25.7144 39.5631 25.4303C39.0913 25.1461 38.5507 24.9973 38 25ZM38 29C37.8023 29 37.6089 28.9413 37.4444 28.8315C37.28 28.7216 37.1519 28.5655 37.0761 28.3827C37.0004 28.2 36.9807 27.9989 37.0192 27.8049C37.0579 27.6109 37.1531 27.4328 37.2929 27.2929C37.4328 27.1531 37.6109 27.0579 37.8049 27.0192C37.9989 26.9807 38.2 27.0005 38.3827 27.0761C38.5655 27.1519 38.7216 27.28 38.8315 27.4445C38.9413 27.6089 39 27.8023 39 28C38.9965 28.2641 38.8901 28.5165 38.7033 28.7033C38.5165 28.8901 38.2641 28.9965 38 29Z" fill="#293438"/>
</svg>
