<svg width="56" height="56" viewBox="0 0 56 56" fill="none" xmlns="http://www.w3.org/2000/svg">
<circle cx="28" cy="28" r="28" fill="white"/>
<path d="M34.3338 36.6398V35.9998C34.3486 34.528 34.8875 33.1099 35.8538 31.9998C37.1273 30.4956 37.9439 28.6586 38.2075 26.7055C38.4713 24.7523 38.1709 22.7645 37.3418 20.9765C36.5129 19.1885 35.1898 17.6749 33.5287 16.6141C31.8677 15.5534 29.9379 14.9897 27.9671 14.9897C25.9963 14.9897 24.0665 15.5534 22.4055 16.6141C20.7445 17.6749 19.4214 19.1885 18.5924 20.9765C17.7634 22.7645 17.463 24.7523 17.7267 26.7055C17.9903 28.6586 18.807 30.4956 20.0805 31.9998C21.0619 33.1059 21.6235 34.5216 21.6671 35.9998V36.6264C21.6706 36.8906 21.7771 37.143 21.9638 37.3298C22.1506 37.5166 22.403 37.623 22.6671 37.6264H25.1605H25.3205H25.4805H30.4938H30.6538H30.8138H33.3338C33.5957 37.6231 33.8461 37.5184 34.0326 37.3346C34.219 37.1506 34.327 36.9016 34.3338 36.6398ZM28.0005 22.9998C27.8027 22.9998 27.6094 22.9411 27.4449 22.8313C27.2805 22.7214 27.1523 22.5652 27.0766 22.3825C27.0009 22.1997 26.9811 21.9987 27.0197 21.8047C27.0583 21.6107 27.1535 21.4325 27.2934 21.2927C27.4333 21.1528 27.6114 21.0576 27.8054 21.019C27.9994 20.9804 28.2004 21.0002 28.3831 21.0759C28.5659 21.1516 28.7221 21.2798 28.8319 21.4442C28.9418 21.6087 29.0005 21.802 29.0005 21.9998C28.997 22.2639 28.8906 22.5163 28.7038 22.7031C28.517 22.8899 28.2646 22.9963 28.0005 22.9998ZM31.6671 35.6398V32.1731L32.6671 29.3331C33.389 29.3428 34.091 29.0966 34.6485 28.6379C35.2059 28.1792 35.5828 27.5378 35.7123 26.8276C35.8418 26.1174 35.7154 25.3843 35.3555 24.7584C34.9958 24.1325 34.4259 23.6543 33.747 23.4088C33.0682 23.1632 32.3242 23.1662 31.6473 23.4171C30.9703 23.668 30.4042 24.1506 30.0494 24.7793C29.6946 25.408 29.5739 26.1422 29.709 26.8512C29.8441 27.5604 30.2261 28.1988 30.7871 28.6531L29.7205 31.6664C29.7015 31.7767 29.7015 31.8895 29.7205 31.9998V35.6398H29.0538V24.8131C29.6385 24.6106 30.1454 24.2307 30.5038 23.7264C30.8623 23.2221 31.0546 22.6185 31.0538 21.9998C31.0566 21.4491 30.9078 20.9084 30.6236 20.4367C30.3395 19.965 29.931 19.5807 29.443 19.3257C28.955 19.0707 28.4062 18.955 27.8567 18.9912C27.3073 19.0274 26.7783 19.2141 26.3279 19.5309C25.8775 19.8476 25.5231 20.2823 25.3032 20.7871C25.0834 21.292 25.0068 21.8476 25.0818 22.3931C25.1567 22.9386 25.3803 23.453 25.7282 23.8798C26.0761 24.3067 26.5347 24.6296 27.0538 24.8131V35.6398H26.3871V31.9998C26.4063 31.8895 26.4063 31.7767 26.3871 31.6664L25.3205 28.6531C25.8599 28.2086 26.2263 27.589 26.3561 26.9022C26.4857 26.2152 26.3703 25.5047 26.0301 24.8941C25.6897 24.2835 25.146 23.8117 24.4937 23.5607C23.8413 23.3097 23.1215 23.2954 22.4598 23.5205C21.798 23.7455 21.2361 24.1955 20.8719 24.7921C20.5077 25.3887 20.3643 26.0942 20.4667 26.7856C20.5691 27.4771 20.9108 28.1107 21.4322 28.5762C21.9537 29.0416 22.6219 29.3095 23.3205 29.3331L24.3205 32.1731V35.6398H23.6538C23.5399 33.8026 22.8228 32.0544 21.6138 30.6664C20.5932 29.448 19.9423 27.9631 19.7379 26.387C19.5335 24.8107 19.7841 23.2089 20.4602 21.7705C21.1363 20.3321 22.2097 19.1169 23.5537 18.2685C24.8977 17.4201 26.4563 16.9737 28.0457 16.9821C29.6351 16.9904 31.189 17.4531 32.5241 18.3155C33.859 19.178 34.9197 20.4043 35.5806 21.8497C36.2415 23.2952 36.4754 24.8995 36.2545 26.4735C36.0335 28.0475 35.3671 29.5255 34.3338 30.7331C33.1482 32.1046 32.4497 33.8298 32.3471 35.6398H31.6671ZM32.6671 27.3331C32.4694 27.3331 32.276 27.2744 32.1115 27.1646C31.9471 27.0547 31.819 26.8986 31.7433 26.7158C31.6675 26.5331 31.6478 26.332 31.6863 26.138C31.725 25.944 31.8202 25.7659 31.9601 25.626C32.0999 25.4862 32.2781 25.391 32.472 25.3523C32.666 25.3137 32.8671 25.3335 33.0498 25.4092C33.2326 25.485 33.3887 25.6131 33.4986 25.7775C33.6085 25.942 33.6671 26.1354 33.6671 26.3331C33.6637 26.5995 33.5554 26.8539 33.3656 27.0411C33.176 27.2282 32.9203 27.3331 32.6538 27.3331H32.6671ZM23.3338 27.3331C23.136 27.3331 22.9427 27.2744 22.7782 27.1646C22.6138 27.0547 22.4856 26.8986 22.4099 26.7158C22.3342 26.5331 22.3144 26.332 22.353 26.138C22.3916 25.944 22.4868 25.7659 22.6267 25.626C22.7665 25.4862 22.9447 25.391 23.1387 25.3523C23.3327 25.3137 23.5338 25.3335 23.7165 25.4092C23.8992 25.485 24.0554 25.6131 24.1653 25.7775C24.2751 25.942 24.3338 26.1354 24.3338 26.3331C24.3303 26.5995 24.222 26.8539 24.0323 27.0411C23.8427 27.2282 23.5869 27.3331 23.3205 27.3331H23.3338Z" fill="#293438"/>
<path d="M24 39C23.7348 39 23.4804 39.1053 23.2929 39.2929C23.1054 39.4804 23 39.7348 23 40C23 40.2652 23.1054 40.5196 23.2929 40.7071C23.4804 40.8947 23.7348 41 24 41H32C32.2652 41 32.5196 40.8947 32.7071 40.7071C32.8947 40.5196 33 40.2652 33 40C33 39.7348 32.8947 39.4804 32.7071 39.2929C32.5196 39.1053 32.2652 39 32 39H24Z" fill="#293438"/>
</svg>
