<svg width="56" height="56" viewBox="0 0 56 56" fill="none" xmlns="http://www.w3.org/2000/svg">
<circle cx="28" cy="28" r="28" fill="white"/>
<path d="M30.0536 22.2798H25.947C24.9756 22.2833 24.045 22.6707 23.3581 23.3576C22.6712 24.0445 22.2838 24.9751 22.2803 25.9465V32.7198C22.2806 32.8994 22.3305 33.0754 22.4247 33.2283C22.5188 33.3813 22.6534 33.5053 22.8136 33.5865C22.953 33.6751 23.1151 33.7214 23.2803 33.7198C23.4756 33.7174 23.6659 33.6571 23.8269 33.5465L25.627 32.3865H30.0536C31.025 32.383 31.9556 31.9955 32.6424 31.3086C33.3294 30.6218 33.7168 29.6911 33.7203 28.7198V25.9465C33.7168 24.9751 33.3294 24.0445 32.6424 23.3576C31.9556 22.6707 31.025 22.2833 30.0536 22.2798ZM31.7203 28.7198C31.7168 29.1607 31.54 29.5826 31.2283 29.8945C30.9164 30.2062 30.4946 30.383 30.0536 30.3865H25.3336C25.1397 30.3857 24.9498 30.4413 24.7869 30.5465L24.2803 30.8665V25.9465C24.2803 25.5045 24.4559 25.0805 24.7684 24.7679C25.081 24.4554 25.505 24.2798 25.947 24.2798H30.0536C30.4946 24.2833 30.9164 24.46 31.2283 24.7718C31.54 25.0836 31.7168 25.5055 31.7203 25.9465V28.7198Z" fill="#293438"/>
<path d="M40 23.6667C40.2652 23.6667 40.5196 23.5613 40.7071 23.3738C40.8947 23.1862 41 22.9319 41 22.6667C41 22.4015 40.8947 22.1471 40.7071 21.9596C40.5196 21.772 40.2652 21.6667 40 21.6667H38.96C38.8816 20.4653 38.3691 19.3335 37.5177 18.4822C36.6665 17.631 35.5347 17.1184 34.3333 17.04V16C34.3333 15.7348 34.228 15.4804 34.0404 15.2929C33.8529 15.1054 33.5985 15 33.3333 15C33.0681 15 32.8137 15.1054 32.6263 15.2929C32.4387 15.4804 32.3333 15.7348 32.3333 16V17H29V16C29 15.7348 28.8947 15.4804 28.7071 15.2929C28.5196 15.1054 28.2652 15 28 15C27.7348 15 27.4804 15.1054 27.2929 15.2929C27.1053 15.4804 27 15.7348 27 16V17H23.6667V16C23.6667 15.7348 23.5613 15.4804 23.3738 15.2929C23.1862 15.1054 22.9319 15 22.6667 15C22.4015 15 22.1471 15.1054 21.9596 15.2929C21.772 15.4804 21.6667 15.7348 21.6667 16V17.04C20.4653 17.1184 19.3335 17.631 18.4822 18.4822C17.631 19.3335 17.1184 20.4653 17.04 21.6667H16C15.7348 21.6667 15.4804 21.772 15.2929 21.9596C15.1054 22.1471 15 22.4015 15 22.6667C15 22.9319 15.1054 23.1862 15.2929 23.3738C15.4804 23.5613 15.7348 23.6667 16 23.6667H17V27H16C15.7348 27 15.4804 27.1053 15.2929 27.2929C15.1054 27.4804 15 27.7348 15 28C15 28.2652 15.1054 28.5196 15.2929 28.7071C15.4804 28.8947 15.7348 29 16 29H17V32.3333H16C15.7348 32.3333 15.4804 32.4387 15.2929 32.6263C15.1054 32.8137 15 33.0681 15 33.3333C15 33.5985 15.1054 33.8529 15.2929 34.0404C15.4804 34.228 15.7348 34.3333 16 34.3333H17.04C17.1184 35.5347 17.631 36.6665 18.4822 37.5177C19.3335 38.3691 20.4653 38.8816 21.6667 38.96V40C21.6667 40.2652 21.772 40.5196 21.9596 40.7071C22.1471 40.8947 22.4015 41 22.6667 41C22.9319 41 23.1862 40.8947 23.3738 40.7071C23.5613 40.5196 23.6667 40.2652 23.6667 40V39H27V40C27 40.2652 27.1053 40.5196 27.2929 40.7071C27.4804 40.8947 27.7348 41 28 41C28.2652 41 28.5196 40.8947 28.7071 40.7071C28.8947 40.5196 29 40.2652 29 40V39H32.3333V40C32.3333 40.2652 32.4387 40.5196 32.6263 40.7071C32.8137 40.8947 33.0681 41 33.3333 41C33.5985 41 33.8529 40.8947 34.0404 40.7071C34.228 40.5196 34.3333 40.2652 34.3333 40V38.96C35.5356 38.8844 36.6691 38.3727 37.5209 37.5209C38.3727 36.6691 38.8844 35.5356 38.96 34.3333H40C40.2652 34.3333 40.5196 34.228 40.7071 34.0404C40.8947 33.8529 41 33.5985 41 33.3333C41 33.0681 40.8947 32.8137 40.7071 32.6263C40.5196 32.4387 40.2652 32.3333 40 32.3333H39V29H40C40.2652 29 40.5196 28.8947 40.7071 28.7071C40.8947 28.5196 41 28.2652 41 28C41 27.7348 40.8947 27.4804 40.7071 27.2929C40.5196 27.1053 40.2652 27 40 27H39V23.6667H40ZM37 34C37 34.7956 36.6839 35.5587 36.1213 36.1213C35.5587 36.6839 34.7956 37 34 37H22C21.2043 37 20.4413 36.6839 19.8787 36.1213C19.3161 35.5587 19 34.7956 19 34V22C19 21.2043 19.3161 20.4413 19.8787 19.8787C20.4413 19.3161 21.2043 19 22 19H34C34.7956 19 35.5587 19.3161 36.1213 19.8787C36.6839 20.4413 37 21.2043 37 22V34Z" fill="#293438"/>
</svg>
