<svg width="56" height="56" viewBox="0 0 56 56" fill="none" xmlns="http://www.w3.org/2000/svg">
<circle cx="28" cy="28" r="28" fill="white"/>
<path d="M15.8803 35.2936C15.6931 35.481 15.5879 35.7352 15.5879 36.0002C15.5879 36.2653 15.6931 36.5194 15.8803 36.7069L19.2937 40.1202C19.4812 40.3074 19.7353 40.4126 20.0003 40.4126C20.2653 40.4126 20.5195 40.3074 20.707 40.1202L23.827 37.0002H32.0003C32.4863 37.0073 32.9689 36.9177 33.4199 36.7366C33.871 36.5554 34.2815 36.2865 34.6277 35.9453C34.9738 35.6041 35.2486 35.1976 35.4362 34.7492C35.6238 34.3008 35.7205 33.8196 35.7203 33.3336V33.0002H39.3337C39.5989 33.0002 39.8533 32.8949 40.0407 32.7073C40.2283 32.5198 40.3337 32.2654 40.3337 32.0002V26.6669C40.3337 26.4017 40.2283 26.1473 40.0407 25.9598C39.8533 25.7722 39.5989 25.6669 39.3337 25.6669H35.7203V22.0136C35.7205 21.5275 35.6238 21.0464 35.4362 20.598C35.2486 20.1496 34.9738 19.743 34.6277 19.4018C34.2815 19.0606 33.871 18.7917 33.4199 18.6106C32.9689 18.4295 32.4863 18.3398 32.0003 18.3469H28.8403C28.6257 17.5814 28.167 16.9068 27.5342 16.4256C26.9013 15.9443 26.1287 15.6826 25.3337 15.6802H19.3337C18.3898 15.6745 17.4803 16.0343 16.7958 16.6842C16.1113 17.3342 15.705 18.2238 15.6619 19.1667C15.6188 20.1096 15.9423 21.0326 16.5647 21.7423C17.187 22.452 18.0599 22.8932 19.0003 22.9736V32.1736L15.8803 35.2936ZM20.0003 38.0002L18.0003 36.0002L20.0003 34.0002L22.0003 36.0002L20.0003 38.0002ZM38.3337 31.0002H31.1203V27.6669H38.3337V31.0002ZM33.7203 22.0136V25.6669H30.1203C29.8551 25.6669 29.6007 25.7722 29.4133 25.9598C29.2257 26.1473 29.1203 26.4017 29.1203 26.6669V32.0002C29.1203 32.2654 29.2257 32.5198 29.4133 32.7073C29.6007 32.8949 29.8551 33.0002 30.1203 33.0002H33.7203V33.3336C33.7205 33.557 33.6757 33.7782 33.5886 33.984C33.5015 34.1897 33.3739 34.3758 33.2135 34.5313C33.053 34.6868 32.863 34.8085 32.6546 34.889C32.4462 34.9696 32.2237 35.0074 32.0003 35.0002H23.827L21.0003 32.1736V23.0136H25.3337C26.1287 23.0112 26.9013 22.7495 27.5342 22.2683C28.167 21.787 28.6257 21.1124 28.8403 20.3469H32.0003C32.2237 20.3398 32.4462 20.3776 32.6546 20.4581C32.863 20.5387 33.053 20.6603 33.2135 20.8158C33.3739 20.9713 33.5015 21.1574 33.5886 21.3632C33.6757 21.569 33.7205 21.7902 33.7203 22.0136ZM17.7203 19.3469C17.7201 18.914 17.8884 18.4979 18.1895 18.1869C18.4906 17.8758 18.901 17.6941 19.3337 17.6802H25.3337C25.7757 17.6802 26.1997 17.8558 26.5122 18.1684C26.8247 18.481 27.0003 18.9049 27.0003 19.3469C27.0003 19.7889 26.8247 20.2129 26.5122 20.5254C26.1997 20.838 25.7757 21.0136 25.3337 21.0136H19.3337C18.8917 21.0136 18.4677 20.838 18.1552 20.5254C17.8426 20.2129 17.667 19.7889 17.667 19.3469H17.7203Z" fill="#293438"/>
</svg>
