<svg width="56" height="56" viewBox="0 0 56 56" fill="none" xmlns="http://www.w3.org/2000/svg">
<circle cx="28" cy="28" r="28" fill="white"/>
<path d="M17.6797 21.9867V19.32C17.6797 18.878 17.8553 18.454 18.1678 18.1415C18.4804 17.8289 18.9043 17.6533 19.3464 17.6533H22.013C22.2782 17.6533 22.5326 17.548 22.7201 17.3604C22.9077 17.1729 23.013 16.9185 23.013 16.6533C23.013 16.3881 22.9077 16.1337 22.7201 15.9462C22.5326 15.7587 22.2782 15.6533 22.013 15.6533H19.3464C18.3739 15.6533 17.4413 16.0396 16.7536 16.7273C16.066 17.4149 15.6797 18.3475 15.6797 19.32V21.9867C15.6797 22.2519 15.785 22.5062 15.9726 22.6938C16.1601 22.8813 16.4145 22.9867 16.6797 22.9867C16.9449 22.9867 17.1993 22.8813 17.3868 22.6938C17.5743 22.5062 17.6797 22.2519 17.6797 21.9867Z" fill="#293438"/>
<path d="M39.3333 23.0003C39.5985 23.0003 39.8529 22.895 40.0404 22.7074C40.228 22.5199 40.3333 22.2655 40.3333 22.0003V19.3337C40.3333 18.3612 39.9471 17.4286 39.2593 16.7409C38.5717 16.0533 37.6391 15.667 36.6667 15.667H34C33.7348 15.667 33.4804 15.7724 33.2929 15.9599C33.1053 16.1474 33 16.4018 33 16.667C33 16.9322 33.1053 17.1866 33.2929 17.3741C33.4804 17.5616 33.7348 17.667 34 17.667H36.6667C37.1087 17.667 37.5327 17.8426 37.8452 18.1552C38.1577 18.4677 38.3333 18.8916 38.3333 19.3337V22.0003C38.3368 22.2645 38.4432 22.5168 38.63 22.7036C38.8168 22.8904 39.0692 22.9969 39.3333 23.0003Z" fill="#293438"/>
<path d="M36.6803 40.3333C37.6529 40.3333 38.5854 39.9471 39.2731 39.2593C39.9607 38.5717 40.347 37.6391 40.347 36.6667V34C40.347 33.7348 40.2417 33.4804 40.0541 33.2929C39.8666 33.1053 39.6122 33 39.347 33C39.0818 33 38.8274 33.1053 38.6399 33.2929C38.4523 33.4804 38.347 33.7348 38.347 34V36.6667C38.347 37.1087 38.1714 37.5327 37.8589 37.8452C37.5463 38.1577 37.1223 38.3333 36.6803 38.3333H34.0137C33.7485 38.3333 33.4941 38.4387 33.3066 38.6263C33.119 38.8137 33.0137 39.0681 33.0137 39.3333C33.0137 39.5985 33.119 39.8529 33.3066 40.0404C33.4941 40.228 33.7485 40.3333 34.0137 40.3333H36.6803Z" fill="#293438"/>
<path d="M16.6797 33.0264C16.4155 33.0298 16.1632 33.1364 15.9764 33.3232C15.7896 33.5098 15.6831 33.7622 15.6797 34.0264V36.693C15.6797 37.6656 16.066 38.5981 16.7536 39.2858C17.4413 39.9734 18.3739 40.3597 19.3464 40.3597H22.013C22.2782 40.3597 22.5326 40.2544 22.7201 40.0668C22.9077 39.8793 23.013 39.6249 23.013 39.3597C23.013 39.0945 22.9077 38.8401 22.7201 38.6526C22.5326 38.465 22.2782 38.3597 22.013 38.3597H19.3464C18.9043 38.3597 18.4804 38.1841 18.1678 37.8716C17.8553 37.559 17.6797 37.135 17.6797 36.693V34.0264C17.6762 33.7622 17.5698 33.5098 17.383 33.3232C17.1962 33.1364 16.9438 33.0298 16.6797 33.0264Z" fill="#293438"/>
<path d="M40 27.0003H37.3333C37.1243 27.0005 36.9205 27.0662 36.7507 27.1882C36.5809 27.3102 36.4536 27.4823 36.3867 27.6803L35.32 30.8937C35.3139 30.9222 35.3019 30.9491 35.2849 30.9727C35.2679 30.9965 35.2463 31.0163 35.2213 31.0314C35.1963 31.0463 35.1685 31.0561 35.1396 31.0599C35.1107 31.0638 35.0813 31.0617 35.0533 31.0537C34.9989 31.0538 34.9467 31.0331 34.9071 30.9961C34.8673 30.9589 34.8433 30.9079 34.84 30.8537L33.3333 21.4137C33.2851 21.0958 33.1236 20.806 32.8787 20.5977C32.6336 20.3894 32.3216 20.2767 32 20.2804C31.6936 20.2876 31.3979 20.3943 31.1573 20.5843C30.9168 20.7743 30.7447 21.0373 30.6667 21.3337L28.4 32.0803L27.7733 25.6137C27.6697 25.0928 27.3856 24.6252 26.9709 24.2934C26.5561 23.9617 26.0376 23.787 25.5067 23.8004C24.9728 23.8085 24.4596 24.0082 24.0607 24.3631C23.6617 24.718 23.4036 25.2044 23.3333 25.7337L22.5333 31.3737C22.5299 31.4315 22.5046 31.4858 22.4624 31.5254C22.4203 31.5651 22.3645 31.5871 22.3067 31.587C22.2491 31.593 22.1913 31.579 22.1427 31.5474C22.0942 31.5159 22.058 31.4687 22.04 31.4137L21.3333 28.8537C21.1796 28.3186 20.8557 27.8481 20.4106 27.5137C19.9654 27.1793 19.4234 26.999 18.8667 27.0003H16C15.7348 27.0003 15.4804 27.1057 15.2929 27.2933C15.1054 27.4807 15 27.7351 15 28.0003C15 28.2655 15.1054 28.5199 15.2929 28.7075C15.4804 28.895 15.7348 29.0003 16 29.0003H18.8133C18.9368 29.0013 19.0567 29.0419 19.1552 29.1163C19.2537 29.1909 19.3255 29.2951 19.36 29.4137L20.0933 32.0003C20.2388 32.4909 20.5468 32.9171 20.9668 33.2093C21.3867 33.5014 21.8935 33.6419 22.404 33.6078C22.9144 33.5737 23.398 33.3669 23.7753 33.0215C24.1526 32.6761 24.4011 32.2125 24.48 31.707L25.3333 26.027C25.3351 25.9973 25.3425 25.9681 25.3556 25.9413C25.3685 25.9143 25.3868 25.8903 25.4091 25.8706C25.4313 25.8507 25.4573 25.8355 25.4855 25.8258C25.5137 25.8159 25.5436 25.8119 25.5733 25.8137C25.6171 25.8103 25.6611 25.8183 25.7008 25.837C25.7405 25.8558 25.7747 25.8845 25.8 25.9203L26.7333 36.0003C26.7553 36.3467 26.9029 36.6733 27.1483 36.9187C27.3937 37.1642 27.7203 37.3117 28.0667 37.3337H28.1467C28.4748 37.3346 28.7931 37.2223 29.0481 37.0159C29.3032 36.8095 29.4792 36.5214 29.5467 36.2003L31.8667 25.267L32.8533 31.2403C32.9297 31.7393 33.1724 32.1978 33.5419 32.5415C33.9115 32.8853 34.3863 33.0941 34.8895 33.1342C35.3925 33.1743 35.8945 33.0434 36.3139 32.7626C36.7332 32.4818 37.0455 32.0675 37.2 31.587L38.04 29.067H40C40.2652 29.067 40.5196 28.9617 40.7071 28.7742C40.8947 28.5866 41 28.3322 41 28.067C41 27.8018 40.8947 27.5474 40.7071 27.3599C40.5196 27.1723 40.2652 27.067 40 27.067V27.0003Z" fill="#293438"/>
</svg>
