<svg width="56" height="56" viewBox="0 0 56 56" fill="none" xmlns="http://www.w3.org/2000/svg">
<circle cx="28" cy="28" r="28" fill="white"/>
<path d="M38.7338 25.3335C39.0838 25.1299 39.3884 24.8569 39.6291 24.5313C39.8699 24.2057 40.0416 23.8344 40.1338 23.4402C40.2364 23.0602 40.263 22.6637 40.2119 22.2734C40.1608 21.8831 40.0331 21.5068 39.8362 21.166C39.6391 20.8253 39.3767 20.5269 39.0639 20.2879C38.7512 20.0489 38.3943 19.8741 38.0138 19.7735C37.6334 19.6679 37.2356 19.6394 36.8442 19.6898C36.4526 19.7402 36.075 19.8684 35.7338 20.0668C35.5766 20.1582 35.4291 20.2654 35.2938 20.3868L30.9471 17.8802C30.9608 17.6982 30.9608 17.5155 30.9471 17.3335C30.9471 16.5378 30.631 15.7748 30.0684 15.2122C29.5058 14.6496 28.7427 14.3335 27.9471 14.3335C27.1515 14.3335 26.3884 14.6496 25.8258 15.2122C25.2632 15.7748 24.9471 16.5378 24.9471 17.3335C24.9333 17.5155 24.9333 17.6982 24.9471 17.8802L20.7071 20.3868C20.5717 20.2654 20.4243 20.1582 20.2671 20.0668C19.9258 19.8684 19.5483 19.7402 19.1567 19.6898C18.7652 19.6394 18.3675 19.6679 17.9871 19.7735C17.6066 19.8741 17.2497 20.0489 16.9369 20.2879C16.6242 20.5269 16.3618 20.8253 16.1647 21.166C15.9677 21.5068 15.84 21.8831 15.7889 22.2734C15.7378 22.6637 15.7644 23.0602 15.8671 23.4402C15.9669 23.8402 16.1489 24.2151 16.4014 24.541C16.6539 24.867 16.9714 25.1368 17.3338 25.3335C17.4908 25.4171 17.6562 25.4842 17.8271 25.5335V30.5735C17.6567 30.6354 17.4917 30.7112 17.3338 30.8002C16.6436 31.1991 16.1397 31.8552 15.9323 32.625C15.7248 33.3946 15.8309 34.2151 16.2271 34.9068C16.498 35.371 16.8882 35.7542 17.3571 36.0167C17.8259 36.2792 18.3565 36.4116 18.8938 36.4002C19.3767 36.377 19.8472 36.2399 20.2671 36.0002C20.4243 35.9088 20.5717 35.8015 20.7071 35.6802L25.0538 38.1868C25.04 38.3688 25.04 38.5515 25.0538 38.7335C25.0538 39.5291 25.3698 40.2922 25.9324 40.8548C26.4951 41.4174 27.2582 41.7335 28.0538 41.7335C28.8494 41.7335 29.6124 41.4174 30.1751 40.8548C30.7376 40.2922 31.0538 39.5291 31.0538 38.7335C31.0675 38.5515 31.0675 38.3688 31.0538 38.1868L35.4004 35.6802C35.5358 35.8015 35.6832 35.9088 35.8404 36.0002C36.2959 36.2588 36.81 36.3966 37.3338 36.4002C37.871 36.4116 38.4016 36.2792 38.8704 36.0167C39.3394 35.7542 39.7295 35.371 40.0004 34.9068C40.3967 34.2151 40.5027 33.3946 40.2952 32.625C40.0879 31.8552 39.5839 31.1991 38.8938 30.8002C38.7358 30.7112 38.5708 30.6354 38.4004 30.5735V25.4668C38.5146 25.4303 38.6259 25.3856 38.7338 25.3335ZM26.0671 36.4668L21.6938 33.8802C21.767 33.5194 21.767 33.1476 21.6938 32.7868L26.0538 30.2668C26.3254 30.5094 26.6427 30.6952 26.9871 30.8135V35.8535C26.6474 35.9734 26.3347 36.1591 26.0671 36.4002V36.4668ZM29.9338 19.6668L34.3071 22.1868C34.2338 22.5476 34.2338 22.9194 34.3071 23.2802L29.9338 25.7335C29.6622 25.491 29.3448 25.3051 29.0004 25.1868V20.1468C29.3448 20.0286 29.6622 19.8427 29.9338 19.6002V19.6668ZM28.0004 29.0002C27.8027 29.0002 27.6092 28.9415 27.4448 28.8316C27.2804 28.7218 27.1522 28.5656 27.0766 28.3828C27.0008 28.2002 26.9811 27.9991 27.0196 27.8051C27.0582 27.6111 27.1535 27.433 27.2934 27.2931C27.4331 27.1532 27.6114 27.058 27.8054 27.0194C27.9994 26.9808 28.2004 27.0006 28.3831 27.0763C28.5658 27.152 28.722 27.2802 28.8319 27.4446C28.9418 27.6091 29.0004 27.8024 29.0004 28.0002C28.997 28.2643 28.8904 28.5167 28.7038 28.7035C28.517 28.8903 28.2646 28.9967 28.0004 29.0002ZM27.0004 20.1468V25.1868C26.656 25.3051 26.3387 25.491 26.0671 25.7335L21.7071 23.2135C21.7804 22.8527 21.7804 22.4809 21.7071 22.1202L26.0671 19.6002C26.3387 19.8427 26.656 20.0286 27.0004 20.1468ZM20.6938 24.9335L25.0538 27.4535C24.9826 27.8144 24.9826 28.1859 25.0538 28.5468L20.7071 31.0535C20.4247 30.8224 20.1044 30.6419 19.7604 30.5202V25.4668C20.1028 25.3504 20.4196 25.1693 20.6938 24.9335ZM29.0004 35.8535V30.8135C29.3448 30.6952 29.6622 30.5094 29.9338 30.2668L34.2938 32.7868C34.2204 33.1476 34.2204 33.5194 34.2938 33.8802L29.9338 36.4002C29.6622 36.1576 29.3448 35.9718 29.0004 35.8535ZM36.2404 30.5202C35.8964 30.6419 35.5762 30.8224 35.2938 31.0535L30.9471 28.5468C31.0183 28.1859 31.0183 27.8144 30.9471 27.4535L35.3071 24.9335C35.5812 25.1693 35.898 25.3504 36.2404 25.4668V30.5202ZM37.2404 21.6668C37.3244 21.654 37.4098 21.654 37.4938 21.6668C37.623 21.6973 37.7444 21.7545 37.85 21.8349C37.9558 21.9153 38.0432 22.017 38.1071 22.1335C38.1714 22.2455 38.2128 22.3693 38.2288 22.4974C38.2449 22.6256 38.2352 22.7557 38.2004 22.8802C38.17 23.0094 38.1127 23.1308 38.0323 23.2365C37.9519 23.3421 37.8502 23.4297 37.7338 23.4935C37.5079 23.6165 37.2432 23.6477 36.995 23.5806C36.7467 23.5136 36.5338 23.3535 36.4004 23.1335C36.2666 22.9039 36.2283 22.631 36.2938 22.3735C36.365 22.1168 36.532 21.8973 36.7604 21.7602C36.9102 21.6898 37.0751 21.6577 37.2404 21.6668ZM28.0004 16.3335C28.1982 16.3335 28.3915 16.3921 28.556 16.502C28.7204 16.6119 28.8486 16.7681 28.9243 16.9508C29 17.1335 29.0198 17.3346 28.9812 17.5286C28.9426 17.7226 28.8474 17.9007 28.7075 18.0406C28.5676 18.1805 28.3895 18.2757 28.1955 18.3143C28.0015 18.3529 27.8004 18.3331 27.6178 18.2574C27.435 18.1817 27.2788 18.0535 27.169 17.8891C27.0591 17.7246 27.0004 17.5313 27.0004 17.3335C27.0039 17.0693 27.1103 16.817 27.2971 16.6302C27.4839 16.4434 27.7363 16.3369 28.0004 16.3335ZM17.8938 22.1735C17.9576 22.057 18.0451 21.9553 18.1508 21.8749C18.2565 21.7945 18.3779 21.7373 18.5071 21.7068C18.5911 21.694 18.6765 21.694 18.7604 21.7068C18.9382 21.7055 19.1131 21.7515 19.2671 21.8402C19.4955 21.9773 19.6625 22.1968 19.7338 22.4535C19.7992 22.711 19.7609 22.9839 19.6271 23.2135C19.4938 23.4335 19.2809 23.5936 19.0326 23.6606C18.7842 23.7277 18.5197 23.6965 18.2938 23.5735C18.1773 23.5097 18.0756 23.4221 17.9952 23.3165C17.9148 23.2108 17.8575 23.0894 17.8271 22.9602C17.7826 22.8317 17.7656 22.6953 17.7771 22.5598C17.7886 22.4243 17.8283 22.2927 17.8938 22.1735ZM17.8938 33.8402C17.7644 33.6088 17.731 33.3359 17.8004 33.0802C17.8309 32.951 17.8881 32.8295 17.9685 32.7239C18.0489 32.6182 18.1506 32.5306 18.2671 32.4668C18.4156 32.3767 18.5867 32.3304 18.7604 32.3335H19.0138C19.1403 32.3663 19.2588 32.4247 19.3619 32.505C19.4651 32.5851 19.5508 32.6856 19.6138 32.8002C19.6803 32.9112 19.724 33.0346 19.7424 33.1627C19.7607 33.291 19.7532 33.4215 19.7204 33.5468C19.6492 33.8035 19.4821 34.023 19.2538 34.1602C19.0293 34.2915 18.763 34.3316 18.5098 34.272C18.2566 34.2124 18.0361 34.0579 17.8938 33.8402ZM28.0004 39.6668C27.8027 39.6668 27.6092 39.6082 27.4448 39.4983C27.2804 39.3884 27.1522 39.2323 27.0766 39.0495C27.0008 38.8668 26.9811 38.6658 27.0196 38.4718C27.0582 38.2778 27.1535 38.0996 27.2934 37.9598C27.4331 37.8199 27.6114 37.7247 27.8054 37.686C27.9994 37.6475 28.2004 37.6672 28.3831 37.743C28.5658 37.8187 28.722 37.9468 28.8319 38.1112C28.9418 38.2758 29.0004 38.4691 29.0004 38.6668C28.997 38.931 28.8904 39.1834 28.7038 39.3702C28.517 39.557 28.2646 39.6634 28.0004 39.6668ZM38.1071 33.8402C37.9715 34.0576 37.7587 34.2156 37.5112 34.2824C37.2639 34.3492 37.0003 34.3199 36.7738 34.2002C36.5454 34.063 36.3783 33.8435 36.3071 33.5868C36.2743 33.4615 36.2668 33.331 36.2851 33.2027C36.3035 33.0746 36.3472 32.9512 36.4138 32.8402C36.4767 32.7256 36.5624 32.6251 36.6656 32.545C36.7688 32.4647 36.8872 32.4063 37.0138 32.3735H37.2671C37.4408 32.3704 37.6119 32.4167 37.7604 32.5068C37.8768 32.5706 37.9786 32.6582 38.059 32.7639C38.1394 32.8695 38.1967 32.991 38.2271 33.1202C38.2779 33.3667 38.2351 33.6234 38.1071 33.8402Z" fill="#293438"/>
</svg>
